<?xml version="1.0" encoding="UTF-8" standalone="no"?>
<!DOCTYPE svg PUBLIC "-//W3C//DTD SVG 1.1//EN" "http://www.w3.org/Graphics/SVG/1.1/DTD/svg11.dtd">
<svg xmlns="http://www.w3.org/2000/svg" xmlns:xlink="http://www.w3.org/1999/xlink" version="1.1" width="864pt" height="792.95999pt" viewBox="0 0 864 792.95999">
<g enable-background="new">
<clipPath id="cp0">
<path transform="matrix(.24,0,0,.24,0,0)" d="M 0 0 L 3600 0 L 3600 3303.2474 L 0 3303.2474 Z " fill-rule="evenodd"/>
</clipPath>
<g clip-path="url(#cp0)">
<path transform="matrix(.71940049,0,0,.71940049,0,0)" d="M 0 0 L 1201 0 L 1201 1102 L 0 1102 Z " fill="#ffffff"/>
<path transform="matrix(.71940049,0,0,.71940049,0,0)" d="M 0 0 L 1201 0 L 1201 1101 L 0 1101 Z " fill="#ffffff"/>
</g>
<clipPath id="cp1">
<path transform="matrix(.24,0,0,.24,0,0)" d="M 0 0 L 3600 0 L 3600 3300.2498 L 0 3300.2498 Z " fill-rule="evenodd"/>
</clipPath>
<g clip-path="url(#cp1)">
<path transform="matrix(.71940049,0,0,.71940049,.35970024,.35970024)" d="M 387.5 100 L 562.5 100 C 562.9925 100 563.4802 100.048038 563.9632 100.144107 C 564.44619 100.24017 564.9151 100.38244 565.37008 100.57089 C 565.825 100.759349 566.25729 100.99037 566.66677 101.26397 C 567.07626 101.53757 567.4551 101.84847 567.8033 102.19669 C 568.1515 102.54491 568.46237 102.92375 568.73599 103.33321 C 569.0095 103.742679 569.24057 104.17489 569.429 104.62987 C 569.61746 105.08484 569.7597 105.55382 569.85586 106.03681 C 569.95199 106.51981 570 107.007549 570 107.5 L 570 142.5 C 570 142.99245 569.95199 143.48018 569.85586 143.96317 C 569.7597 144.44615 569.61746 144.91513 569.429 145.3701 C 569.24057 145.82508 569.0095 146.2573 568.73599 146.66675 C 568.46237 147.07622 568.1515 147.45507 567.8033 147.80329 C 567.4551 148.1515 567.07626 148.4624 566.66677 148.736 C 566.25729 149.0096 565.825 149.24062 565.37008 149.42908 C 564.9151 149.61754 564.44619 149.7598 563.9632 149.85587 C 563.4802 149.95195 562.9925 149.99999 562.5 150 L 387.5 150 C 387.00755 149.99999 386.5198 149.95195 386.0368 149.85587 C 385.5538 149.7598 385.0848 149.61754 384.62983 149.42908 C 384.17488 149.24062 383.74266 149.0096 383.33317 148.736 C 382.9237 148.4624 382.54487 148.1515 382.19667 147.80329 C 381.84843 147.45507 381.53755 147.07622 381.26396 146.66675 C 380.99037 146.2573 380.7593 145.82508 380.57087 145.3701 C 380.38243 144.91513 380.24018 144.44615 380.14408 143.96317 C 380.048 143.48018 379.99998 142.99245 380 142.5 L 380 107.5 C 379.99998 107.007549 380.048 106.51981 380.14405 106.03681 C 380.24015 105.55382 380.38243 105.08484 380.57087 104.62987 C 380.7593 104.17489 380.99034 103.742679 381.26393 103.33321 C 381.5375 102.92375 381.84843 102.54491 382.19667 102.19669 C 382.54487 101.84847 382.9237 101.53757 383.3332 101.26397 C 383.74266 100.99037 384.17488 100.759349 384.62983 100.57089 C 385.0848 100.38244 385.5538 100.24017 386.0368 100.14411 C 386.5198 100.048038 387.00755 100 387.5 100 Z " fill="#ffffff"/>
<path transform="matrix(.71940049,0,0,.71940049,.35970024,.35970024)" stroke-width="1" stroke-linecap="butt" stroke-miterlimit="4" stroke-linejoin="miter" fill="none" stroke="#000000" d="M 387.5 100 L 562.5 100 C 562.9925 100 563.4802 100.048038 563.9632 100.144107 C 564.44619 100.24017 564.9151 100.38244 565.37008 100.57089 C 565.825 100.759349 566.25729 100.99037 566.66677 101.26397 C 567.07626 101.53757 567.4551 101.84847 567.8033 102.19669 C 568.1515 102.54491 568.46237 102.92375 568.73599 103.33321 C 569.0095 103.742679 569.24057 104.17489 569.429 104.62987 C 569.61746 105.08484 569.7597 105.55382 569.85586 106.03681 C 569.95199 106.51981 570 107.007549 570 107.5 L 570 142.5 C 570 142.99245 569.95199 143.48018 569.85586 143.96317 C 569.7597 144.44615 569.61746 144.91513 569.429 145.3701 C 569.24057 145.82508 569.0095 146.2573 568.73599 146.66675 C 568.46237 147.07622 568.1515 147.45507 567.8033 147.80329 C 567.4551 148.1515 567.07626 148.4624 566.66677 148.736 C 566.25729 149.0096 565.825 149.24062 565.37008 149.42908 C 564.9151 149.61754 564.44619 149.7598 563.9632 149.85587 C 563.4802 149.95195 562.9925 149.99999 562.5 150 L 387.5 150 C 387.00755 149.99999 386.5198 149.95195 386.0368 149.85587 C 385.5538 149.7598 385.0848 149.61754 384.62983 149.42908 C 384.17488 149.24062 383.74266 149.0096 383.33317 148.736 C 382.9237 148.4624 382.54487 148.1515 382.19667 147.80329 C 381.84843 147.45507 381.53755 147.07622 381.26396 146.66675 C 380.99037 146.2573 380.7593 145.82508 380.57087 145.3701 C 380.38243 144.91513 380.24018 144.44615 380.14408 143.96317 C 380.048 143.48018 379.99998 142.99245 380 142.5 L 380 107.5 C 379.99998 107.007549 380.048 106.51981 380.14405 106.03681 C 380.24015 105.55382 380.38243 105.08484 380.57087 104.62987 C 380.7593 104.17489 380.99034 103.742679 381.26393 103.33321 C 381.5375 102.92375 381.84843 102.54491 382.19667 102.19669 C 382.54487 101.84847 382.9237 101.53757 383.3332 101.26397 C 383.74266 100.99037 384.17488 100.759349 384.62983 100.57089 C 385.0848 100.38244 385.5538 100.24017 386.0368 100.14411 C 386.5198 100.048038 387.00755 100 387.5 100 Z "/>
<g id="Layer-1" data-name="P">
</g>
<text xml:space="preserve" transform="matrix(.71940049 0 0 .71940049 0 0)" font-size="12" font-family="Arial" font-weight="bold"><tspan y="122" x="431.32814 439.33213 443.32814 450.00013 453.99613 460.66813 464.66413 471.33613 474.67213 478.66813 482.00413 489.33613 492.67213 500.00413 507.33613 512.00418">State:0 - Floor1</tspan></text>
<g id="Layer-1" data-name="P">
<g id="Layer-2" data-name="Span">
</g>
</g>
<text xml:space="preserve" transform="matrix(.71940049 0 0 .71940049 0 0)" font-size="12" font-family="ArialMT"><tspan y="122" x="518.6719"> </tspan></text>
<g id="Layer-1" data-name="P">
</g>
<text xml:space="preserve" transform="matrix(.71940049 0 0 .71940049 0 0)" font-size="12" font-family="ArialMT"><tspan y="137" x="385.46876 393.47276 402.13676 405.47276 412.48075 415.81675 421.81675 425.15275 431.82475 438.49674 441.83274 445.82875 449.16474 457.82875 467.16474 476.50074 485.16474 488.50074 495.50874 498.84474 505.51673 508.85273 512.8487 516.1847 524.8487 528.1847 536.1887 544.19277 547.52877 554.53677 557.87277">AC = stop - DOOR = 1 - DISP = 1</tspan></text>
<path transform="matrix(.71940049,0,0,.71940049,.35970024,.35970024)" d="M 787.5 100 L 962.5 100 C 962.99246 100 963.48019 100.048038 963.96316 100.144107 C 964.44607 100.24017 964.915 100.38244 965.37 100.57089 C 965.82498 100.759349 966.25717 100.99037 966.6666 101.26397 C 967.0761 101.53757 967.45498 101.84847 967.8032 102.19669 C 968.1514 102.54491 968.4623 102.92375 968.73587 103.33321 C 969.00949 103.742679 969.2405 104.17489 969.42898 104.62987 C 969.6174 105.08484 969.7597 105.55382 969.85586 106.03681 C 969.95187 106.51981 969.99996 107.007549 970 107.5 L 970 142.5 C 969.99996 142.99245 969.95187 143.48018 969.8558 143.96317 C 969.75967 144.44615 969.6174 144.91513 969.42898 145.3701 C 969.2405 145.82508 969.00949 146.2573 968.73587 146.66675 C 968.4623 147.07622 968.1514 147.45507 967.8032 147.80329 C 967.45498 148.1515 967.0761 148.4624 966.6666 148.736 C 966.25717 149.0096 965.82498 149.24062 965.37 149.42908 C 964.915 149.61754 964.44607 149.7598 963.9631 149.85587 C 963.4801 149.95195 962.99246 149.99999 962.5 150 L 787.5 150 C 787.0075 149.99999 786.5197 149.95195 786.0367 149.85587 C 785.5537 149.7598 785.0847 149.61754 784.6297 149.42908 C 784.1748 149.24062 783.74258 149.0096 783.33309 148.736 C 782.92367 148.4624 782.5448 148.1515 782.1966 147.80329 C 781.8484 147.45507 781.5374 147.07622 781.2638 146.66675 C 780.9902 146.2573 780.75918 145.82508 780.57077 145.3701 C 780.3823 144.91513 780.2401 144.44615 780.14407 143.96317 C 780.048 143.48018 779.99996 142.99245 780 142.5 L 780 107.5 C 779.99996 107.007549 780.048 106.51981 780.14407 106.03681 C 780.2401 105.55382 780.3823 105.08484 780.57077 104.62987 C 780.75918 104.17489 780.9902 103.742679 781.2638 103.33321 C 781.5374 102.92375 781.8484 102.54491 782.1966 102.19669 C 782.5448 101.84847 782.92367 101.53757 783.33309 101.26397 C 783.74258 100.99037 784.1748 100.759349 784.6297 100.57089 C 785.0847 100.38244 785.5537 100.24017 786.0367 100.14411 C 786.5197 100.048038 787.0075 100 787.5 100 Z " fill="#ffffff"/>
<path transform="matrix(.71940049,0,0,.71940049,.35970024,.35970024)" stroke-width="1" stroke-linecap="butt" stroke-miterlimit="4" stroke-linejoin="miter" fill="none" stroke="#000000" d="M 787.5 100 L 962.5 100 C 962.99246 100 963.48019 100.048038 963.96316 100.144107 C 964.44607 100.24017 964.915 100.38244 965.37 100.57089 C 965.82498 100.759349 966.25717 100.99037 966.6666 101.26397 C 967.0761 101.53757 967.45498 101.84847 967.8032 102.19669 C 968.1514 102.54491 968.4623 102.92375 968.73587 103.33321 C 969.00949 103.742679 969.2405 104.17489 969.42898 104.62987 C 969.6174 105.08484 969.7597 105.55382 969.85586 106.03681 C 969.95187 106.51981 969.99996 107.007549 970 107.5 L 970 142.5 C 969.99996 142.99245 969.95187 143.48018 969.8558 143.96317 C 969.75967 144.44615 969.6174 144.91513 969.42898 145.3701 C 969.2405 145.82508 969.00949 146.2573 968.73587 146.66675 C 968.4623 147.07622 968.1514 147.45507 967.8032 147.80329 C 967.45498 148.1515 967.0761 148.4624 966.6666 148.736 C 966.25717 149.0096 965.82498 149.24062 965.37 149.42908 C 964.915 149.61754 964.44607 149.7598 963.9631 149.85587 C 963.4801 149.95195 962.99246 149.99999 962.5 150 L 787.5 150 C 787.0075 149.99999 786.5197 149.95195 786.0367 149.85587 C 785.5537 149.7598 785.0847 149.61754 784.6297 149.42908 C 784.1748 149.24062 783.74258 149.0096 783.33309 148.736 C 782.92367 148.4624 782.5448 148.1515 782.1966 147.80329 C 781.8484 147.45507 781.5374 147.07622 781.2638 146.66675 C 780.9902 146.2573 780.75918 145.82508 780.57077 145.3701 C 780.3823 144.91513 780.2401 144.44615 780.14407 143.96317 C 780.048 143.48018 779.99996 142.99245 780 142.5 L 780 107.5 C 779.99996 107.007549 780.048 106.51981 780.14407 106.03681 C 780.2401 105.55382 780.3823 105.08484 780.57077 104.62987 C 780.75918 104.17489 780.9902 103.742679 781.2638 103.33321 C 781.5374 102.92375 781.8484 102.54491 782.1966 102.19669 C 782.5448 101.84847 782.92367 101.53757 783.33309 101.26397 C 783.74258 100.99037 784.1748 100.759349 784.6297 100.57089 C 785.0847 100.38244 785.5537 100.24017 786.0367 100.14411 C 786.5197 100.048038 787.0075 100 787.5 100 Z "/>
<g id="Layer-1" data-name="P">
</g>
<text xml:space="preserve" transform="matrix(.71940049 0 0 .71940049 0 0)" font-size="12" font-family="Arial" font-weight="bold"><tspan y="122" x="803.9844 811.9884 815.9844 822.6564 826.65237 833.32437 837.3203 843.9923 847.3283 851.3243 854.6603 861.99227 865.32827 872.6602 879.9922 884.6602 891.3322 894.6682 898.6642 905.99618 909.33218 916.6641 920.0001 927.3321 934.66409 939.3321">State:1 - Floor1 to Floor2</tspan></text>
<g id="Layer-1" data-name="P">
<g id="Layer-2" data-name="Span">
</g>
</g>
<text xml:space="preserve" transform="matrix(.71940049 0 0 .71940049 0 0)" font-size="12" font-family="ArialMT"><tspan y="122" x="945.9844"> </tspan></text>
<g id="Layer-1" data-name="P">
</g>
<text xml:space="preserve" transform="matrix(.71940049 0 0 .71940049 0 0)" font-size="12" font-family="ArialMT"><tspan y="137" x="790.125 798.129 806.793 810.129 817.137 820.473 827.145 833.817 837.153 841.149 844.485 853.149 862.485 871.821 880.485 883.821 890.829 894.165 900.837 904.173 908.16897 911.50497 920.16897 923.50497 931.509 939.513 942.849 949.857 953.193">AC = up - DOOR = 0 - DISP = 1</tspan></text>
<path transform="matrix(.71940049,0,0,.71940049,.35970024,.35970024)" d="M 787.5 300 L 962.5 300 C 962.99246 300 963.48019 300.04804 963.96316 300.14408 C 964.44607 300.24018 964.915 300.38243 965.37 300.57087 C 965.82498 300.75935 966.25717 300.9904 966.6666 301.26399 C 967.0761 301.53758 967.45498 301.84846 967.8032 302.1967 C 968.1514 302.5449 968.4623 302.92375 968.73587 303.3332 C 969.00949 303.74269 969.2405 304.1749 969.42898 304.62986 C 969.6174 305.0848 969.7597 305.55378 969.85586 306.03678 C 969.95187 306.5198 969.99996 307.00755 970 307.5 L 970 342.5 C 969.99996 342.99244 969.95187 343.48014 969.8558 343.96315 C 969.75967 344.44615 969.6174 344.9151 969.42898 345.3701 C 969.2405 345.82508 969.00949 346.25727 968.73587 346.66673 C 968.4623 347.07624 968.1514 347.45509 967.8032 347.80329 C 967.45498 348.15153 967.0761 348.46244 966.6666 348.73603 C 966.25717 349.00959 965.82498 349.2406 965.37 349.42906 C 964.915 349.6175 964.44607 349.75978 963.9631 349.85585 C 963.4801 349.95195 962.99246 349.99998 962.5 350 L 787.5 350 C 787.0075 349.99998 786.5197 349.95195 786.0367 349.85585 C 785.5537 349.75978 785.0847 349.6175 784.6297 349.42906 C 784.1748 349.2406 783.74258 349.00959 783.33309 348.736 C 782.92367 348.4624 782.5448 348.15153 782.1966 347.80329 C 781.8484 347.45509 781.5374 347.07624 781.2638 346.66676 C 780.9902 346.2573 780.75918 345.82508 780.57077 345.3701 C 780.3823 344.9151 780.2401 344.44615 780.14407 343.96315 C 780.048 343.48014 779.99996 342.99244 780 342.5 L 780 307.5 C 779.99996 307.00755 780.048 306.5198 780.14407 306.03678 C 780.2401 305.55378 780.3823 305.0848 780.57077 304.62986 C 780.75918 304.1749 780.9902 303.74269 781.2638 303.3332 C 781.5374 302.92375 781.8484 302.5449 782.1966 302.1967 C 782.5448 301.84846 782.92367 301.53758 783.33309 301.26399 C 783.74258 300.9904 784.1748 300.75935 784.6297 300.57087 C 785.0847 300.38243 785.5537 300.24018 786.0367 300.14408 C 786.5197 300.04804 787.0075 300 787.5 300 Z " fill="#ffffff"/>
<path transform="matrix(.71940049,0,0,.71940049,.35970024,.35970024)" stroke-width="1" stroke-linecap="butt" stroke-miterlimit="4" stroke-linejoin="miter" fill="none" stroke="#000000" d="M 787.5 300 L 962.5 300 C 962.99246 300 963.48019 300.04804 963.96316 300.14408 C 964.44607 300.24018 964.915 300.38243 965.37 300.57087 C 965.82498 300.75935 966.25717 300.9904 966.6666 301.26399 C 967.0761 301.53758 967.45498 301.84846 967.8032 302.1967 C 968.1514 302.5449 968.4623 302.92375 968.73587 303.3332 C 969.00949 303.74269 969.2405 304.1749 969.42898 304.62986 C 969.6174 305.0848 969.7597 305.55378 969.85586 306.03678 C 969.95187 306.5198 969.99996 307.00755 970 307.5 L 970 342.5 C 969.99996 342.99244 969.95187 343.48014 969.8558 343.96315 C 969.75967 344.44615 969.6174 344.9151 969.42898 345.3701 C 969.2405 345.82508 969.00949 346.25727 968.73587 346.66673 C 968.4623 347.07624 968.1514 347.45509 967.8032 347.80329 C 967.45498 348.15153 967.0761 348.46244 966.6666 348.73603 C 966.25717 349.00959 965.82498 349.2406 965.37 349.42906 C 964.915 349.6175 964.44607 349.75978 963.9631 349.85585 C 963.4801 349.95195 962.99246 349.99998 962.5 350 L 787.5 350 C 787.0075 349.99998 786.5197 349.95195 786.0367 349.85585 C 785.5537 349.75978 785.0847 349.6175 784.6297 349.42906 C 784.1748 349.2406 783.74258 349.00959 783.33309 348.736 C 782.92367 348.4624 782.5448 348.15153 782.1966 347.80329 C 781.8484 347.45509 781.5374 347.07624 781.2638 346.66676 C 780.9902 346.2573 780.75918 345.82508 780.57077 345.3701 C 780.3823 344.9151 780.2401 344.44615 780.14407 343.96315 C 780.048 343.48014 779.99996 342.99244 780 342.5 L 780 307.5 C 779.99996 307.00755 780.048 306.5198 780.14407 306.03678 C 780.2401 305.55378 780.3823 305.0848 780.57077 304.62986 C 780.75918 304.1749 780.9902 303.74269 781.2638 303.3332 C 781.5374 302.92375 781.8484 302.5449 782.1966 302.1967 C 782.5448 301.84846 782.92367 301.53758 783.33309 301.26399 C 783.74258 300.9904 784.1748 300.75935 784.6297 300.57087 C 785.0847 300.38243 785.5537 300.24018 786.0367 300.14408 C 786.5197 300.04804 787.0075 300 787.5 300 Z "/>
<g id="Layer-1" data-name="P">
</g>
<text xml:space="preserve" transform="matrix(.71940049 0 0 .71940049 0 0)" font-size="12" font-family="Arial" font-weight="bold"><tspan y="322" x="817.3281 825.33218 829.3281 836.0001 839.9961 846.6681 850.66409 857.33609 860.67208 864.668 868.004 875.336 878.672 886.00399 893.33596 898.00399 904.67599 908.01199 912.00796 920.67196 928.67599">State:2 - Floor2 (UP)</tspan></text>
<g id="Layer-1" data-name="P">
<g id="Layer-2" data-name="Span">
</g>
</g>
<text xml:space="preserve" transform="matrix(.71940049 0 0 .71940049 0 0)" font-size="12" font-family="ArialMT"><tspan y="322" x="932.65628"> </tspan></text>
<g id="Layer-1" data-name="P">
</g>
<text xml:space="preserve" transform="matrix(.71940049 0 0 .71940049 0 0)" font-size="12" font-family="ArialMT"><tspan y="337" x="785.46878 793.4728 802.1368 805.4728 812.4808 815.8168 821.8168 825.1528 831.82479 838.49679 841.83279 845.82876 849.16476 857.82876 867.16476 876.50076 885.16476 888.50076 895.5087 898.8447 905.5167 908.8527 912.8487 916.1847 924.8487 928.1847 936.1887 944.19277 947.52877 954.53677 957.87277">AC = stop - DOOR = 1 - DISP = 2</tspan></text>
<path transform="matrix(.71940049,0,0,.71940049,.35970024,.35970024)" d="M 787.5 730 L 962.5 730 C 962.99246 730 963.48019 730.04806 963.96316 730.14419 C 964.44607 730.2402 964.915 730.38247 965.37 730.5709 C 965.82498 730.75936 966.25717 730.99038 966.6666 731.2639 C 967.0761 731.53756 967.45498 731.84848 967.8032 732.19668 C 968.1514 732.54489 968.4623 732.92379 968.73587 733.33328 C 969.00949 733.7427 969.2405 734.17489 969.42898 734.6298 C 969.6174 735.0848 969.7597 735.5538 969.85586 736.03677 C 969.95187 736.5198 969.99996 737.0075 970 737.5 L 970 772.5 C 969.99996 772.99246 969.95187 773.4801 969.8558 773.9631 C 969.75967 774.44607 969.6174 774.91506 969.42898 775.37 C 969.2405 775.825 969.00949 776.2572 968.73587 776.6667 C 968.4623 777.0761 968.1514 777.45498 967.8032 777.8032 C 967.45498 778.1514 967.0761 778.46237 966.6666 778.7359 C 966.25717 779.0095 965.82498 779.24057 965.37 779.42898 C 964.915 779.61746 964.44607 779.7597 963.9631 779.85586 C 963.4801 779.9519 962.99246 779.99996 962.5 780 L 787.5 780 C 787.0075 779.99996 786.5197 779.9519 786.0367 779.85586 C 785.5537 779.7597 785.0847 779.61746 784.6297 779.42898 C 784.1748 779.24057 783.74258 779.00949 783.33309 778.73587 C 782.92367 778.46237 782.5448 778.1514 782.1966 777.8032 C 781.8484 777.45498 781.5374 777.0761 781.2638 776.6667 C 780.9902 776.2572 780.75918 775.825 780.57077 775.37 C 780.3823 774.91506 780.2401 774.44607 780.14407 773.9631 C 780.048 773.4801 779.99996 772.99246 780 772.5 L 780 737.5 C 779.99996 737.0075 780.048 736.5198 780.14407 736.0368 C 780.2401 735.5538 780.3823 735.0848 780.57077 734.6298 C 780.75918 734.17489 780.9902 733.7427 781.2638 733.33328 C 781.5374 732.92379 781.8484 732.54489 782.1966 732.19668 C 782.5448 731.84848 782.92367 731.53756 783.33309 731.2639 C 783.74258 730.9903 784.1748 730.7593 784.6297 730.57089 C 785.0847 730.38247 785.5537 730.2402 786.0367 730.1441 C 786.5197 730.04806 787.0075 730 787.5 730 Z " fill="#ffffff"/>
<path transform="matrix(.71940049,0,0,.71940049,.35970024,.35970024)" stroke-width="1" stroke-linecap="butt" stroke-miterlimit="4" stroke-linejoin="miter" fill="none" stroke="#000000" d="M 787.5 730 L 962.5 730 C 962.99246 730 963.48019 730.04806 963.96316 730.14419 C 964.44607 730.2402 964.915 730.38247 965.37 730.5709 C 965.82498 730.75936 966.25717 730.99038 966.6666 731.2639 C 967.0761 731.53756 967.45498 731.84848 967.8032 732.19668 C 968.1514 732.54489 968.4623 732.92379 968.73587 733.33328 C 969.00949 733.7427 969.2405 734.17489 969.42898 734.6298 C 969.6174 735.0848 969.7597 735.5538 969.85586 736.03677 C 969.95187 736.5198 969.99996 737.0075 970 737.5 L 970 772.5 C 969.99996 772.99246 969.95187 773.4801 969.8558 773.9631 C 969.75967 774.44607 969.6174 774.91506 969.42898 775.37 C 969.2405 775.825 969.00949 776.2572 968.73587 776.6667 C 968.4623 777.0761 968.1514 777.45498 967.8032 777.8032 C 967.45498 778.1514 967.0761 778.46237 966.6666 778.7359 C 966.25717 779.0095 965.82498 779.24057 965.37 779.42898 C 964.915 779.61746 964.44607 779.7597 963.9631 779.85586 C 963.4801 779.9519 962.99246 779.99996 962.5 780 L 787.5 780 C 787.0075 779.99996 786.5197 779.9519 786.0367 779.85586 C 785.5537 779.7597 785.0847 779.61746 784.6297 779.42898 C 784.1748 779.24057 783.74258 779.00949 783.33309 778.73587 C 782.92367 778.46237 782.5448 778.1514 782.1966 777.8032 C 781.8484 777.45498 781.5374 777.0761 781.2638 776.6667 C 780.9902 776.2572 780.75918 775.825 780.57077 775.37 C 780.3823 774.91506 780.2401 774.44607 780.14407 773.9631 C 780.048 773.4801 779.99996 772.99246 780 772.5 L 780 737.5 C 779.99996 737.0075 780.048 736.5198 780.14407 736.0368 C 780.2401 735.5538 780.3823 735.0848 780.57077 734.6298 C 780.75918 734.17489 780.9902 733.7427 781.2638 733.33328 C 781.5374 732.92379 781.8484 732.54489 782.1966 732.19668 C 782.5448 731.84848 782.92367 731.53756 783.33309 731.2639 C 783.74258 730.9903 784.1748 730.7593 784.6297 730.57089 C 785.0847 730.38247 785.5537 730.2402 786.0367 730.1441 C 786.5197 730.04806 787.0075 730 787.5 730 Z "/>
<g id="Layer-1" data-name="P">
</g>
<text xml:space="preserve" transform="matrix(.71940049 0 0 .71940049 0 0)" font-size="12" font-family="Arial" font-weight="bold"><tspan y="752" x="803.9844 811.9884 815.9844 822.6564 826.65237 833.32437 837.3203 843.9923 847.3283 851.3243 854.6603 861.99227 865.32827 872.6602 879.9922 884.6602 891.3322 894.6682 898.6642 905.99618 909.33218 916.6641 920.0001 927.3321 934.66409 939.3321">State:3 - Floor2 to Floor3</tspan></text>
<g id="Layer-1" data-name="P">
<g id="Layer-2" data-name="Span">
</g>
</g>
<text xml:space="preserve" transform="matrix(.71940049 0 0 .71940049 0 0)" font-size="12" font-family="ArialMT"><tspan y="752" x="945.9844"> </tspan></text>
<g id="Layer-1" data-name="P">
</g>
<text xml:space="preserve" transform="matrix(.71940049 0 0 .71940049 0 0)" font-size="12" font-family="ArialMT"><tspan y="767" x="790.125 798.129 806.793 810.129 817.137 820.473 827.145 833.817 837.153 841.149 844.485 853.149 862.485 871.821 880.485 883.821 890.829 894.165 900.837 904.173 908.16897 911.50497 920.16897 923.50497 931.509 939.513 942.849 949.857 953.193">AC = up - DOOR = 0 - DISP = 2</tspan></text>
<path transform="matrix(.71940049,0,0,.71940049,.35970024,.35970024)" d="M 387.5 940 L 562.5 940 C 562.9925 940 563.4802 940.04806 563.9632 940.1441 C 564.44619 940.2402 564.9151 940.38247 565.37008 940.57089 C 565.825 940.75936 566.25729 940.99038 566.66677 941.26388 C 567.07626 941.5375 567.4551 941.84848 567.8033 942.19668 C 568.1515 942.54489 568.46237 942.9237 568.73599 943.3332 C 569.0095 943.7426 569.24057 944.1748 569.429 944.62979 C 569.61746 945.0847 569.7597 945.5537 569.85586 946.03677 C 569.95199 946.5198 570 947.0075 570 947.5 L 570 982.5 C 570 982.99246 569.95199 983.48019 569.85586 983.96316 C 569.7597 984.4461 569.61746 984.91506 569.429 985.37008 C 569.24057 985.82498 569.0095 986.2572 568.73599 986.6667 C 568.46237 987.0762 568.1515 987.455 567.8033 987.8032 C 567.4551 988.1514 567.07626 988.4623 566.66677 988.7359 C 566.25729 989.00949 565.825 989.2405 565.37008 989.42898 C 564.9151 989.6174 564.44619 989.7597 563.9632 989.85586 C 563.4802 989.9519 562.9925 989.99996 562.5 990 L 387.5 990 C 387.00755 989.99996 386.5198 989.9519 386.0368 989.8558 C 385.5538 989.75967 385.0848 989.6174 384.62983 989.42898 C 384.17488 989.2405 383.74266 989.00949 383.33317 988.7359 C 382.9237 988.4623 382.54487 988.1514 382.19667 987.8032 C 381.84843 987.455 381.53755 987.0762 381.26396 986.6667 C 380.99037 986.2572 380.7593 985.82498 380.57087 985.37008 C 380.38243 984.91506 380.24018 984.44607 380.14408 983.9631 C 380.048 983.4801 379.99998 982.99246 380 982.5 L 380 947.5 C 379.99998 947.0075 380.048 946.5198 380.14405 946.03677 C 380.24015 945.5537 380.38243 945.0847 380.57087 944.62979 C 380.7593 944.1748 380.99034 943.7426 381.26393 943.3332 C 381.5375 942.9237 381.84843 942.54489 382.19667 942.19668 C 382.54487 941.84848 382.9237 941.5375 383.3332 941.26388 C 383.74266 940.99038 384.17488 940.75936 384.62983 940.57089 C 385.0848 940.38247 385.5538 940.2402 386.0368 940.1441 C 386.5198 940.04806 387.00755 940 387.5 940 Z " fill="#ffffff"/>
<path transform="matrix(.71940049,0,0,.71940049,.35970024,.35970024)" stroke-width="1" stroke-linecap="butt" stroke-miterlimit="4" stroke-linejoin="miter" fill="none" stroke="#000000" d="M 387.5 940 L 562.5 940 C 562.9925 940 563.4802 940.04806 563.9632 940.1441 C 564.44619 940.2402 564.9151 940.38247 565.37008 940.57089 C 565.825 940.75936 566.25729 940.99038 566.66677 941.26388 C 567.07626 941.5375 567.4551 941.84848 567.8033 942.19668 C 568.1515 942.54489 568.46237 942.9237 568.73599 943.3332 C 569.0095 943.7426 569.24057 944.1748 569.429 944.62979 C 569.61746 945.0847 569.7597 945.5537 569.85586 946.03677 C 569.95199 946.5198 570 947.0075 570 947.5 L 570 982.5 C 570 982.99246 569.95199 983.48019 569.85586 983.96316 C 569.7597 984.4461 569.61746 984.91506 569.429 985.37008 C 569.24057 985.82498 569.0095 986.2572 568.73599 986.6667 C 568.46237 987.0762 568.1515 987.455 567.8033 987.8032 C 567.4551 988.1514 567.07626 988.4623 566.66677 988.7359 C 566.25729 989.00949 565.825 989.2405 565.37008 989.42898 C 564.9151 989.6174 564.44619 989.7597 563.9632 989.85586 C 563.4802 989.9519 562.9925 989.99996 562.5 990 L 387.5 990 C 387.00755 989.99996 386.5198 989.9519 386.0368 989.8558 C 385.5538 989.75967 385.0848 989.6174 384.62983 989.42898 C 384.17488 989.2405 383.74266 989.00949 383.33317 988.7359 C 382.9237 988.4623 382.54487 988.1514 382.19667 987.8032 C 381.84843 987.455 381.53755 987.0762 381.26396 986.6667 C 380.99037 986.2572 380.7593 985.82498 380.57087 985.37008 C 380.38243 984.91506 380.24018 984.44607 380.14408 983.9631 C 380.048 983.4801 379.99998 982.99246 380 982.5 L 380 947.5 C 379.99998 947.0075 380.048 946.5198 380.14405 946.03677 C 380.24015 945.5537 380.38243 945.0847 380.57087 944.62979 C 380.7593 944.1748 380.99034 943.7426 381.26393 943.3332 C 381.5375 942.9237 381.84843 942.54489 382.19667 942.19668 C 382.54487 941.84848 382.9237 941.5375 383.3332 941.26388 C 383.74266 940.99038 384.17488 940.75936 384.62983 940.57089 C 385.0848 940.38247 385.5538 940.2402 386.0368 940.1441 C 386.5198 940.04806 387.00755 940 387.5 940 Z "/>
<g id="Layer-1" data-name="P">
</g>
<text xml:space="preserve" transform="matrix(.71940049 0 0 .71940049 0 0)" font-size="12" font-family="Arial" font-weight="bold"><tspan y="962" x="431.32814 439.33213 443.32814 450.00013 453.99613 460.66813 464.66413 471.33613 474.67213 478.66813 482.00413 489.33613 492.67213 500.00413 507.33613 512.00418">State:4 - Floor3</tspan></text>
<g id="Layer-1" data-name="P">
<g id="Layer-2" data-name="Span">
</g>
</g>
<text xml:space="preserve" transform="matrix(.71940049 0 0 .71940049 0 0)" font-size="12" font-family="ArialMT"><tspan y="962" x="518.6719"> </tspan></text>
<g id="Layer-1" data-name="P">
</g>
<text xml:space="preserve" transform="matrix(.71940049 0 0 .71940049 0 0)" font-size="12" font-family="ArialMT"><tspan y="977" x="385.46876 393.47276 402.13676 405.47276 412.48075 415.81675 421.81675 425.15275 431.82475 438.49674 441.83274 445.82875 449.16474 457.82875 467.16474 476.50074 485.16474 488.50074 495.50874 498.84474 505.51673 508.85273 512.8487 516.1847 524.8487 528.1847 536.1887 544.19277 547.52877 554.53677 557.87277">AC = stop - DOOR = 1 - DISP = 3</tspan></text>
<path transform="matrix(.71940049,0,0,.71940049,.35970024,.35970024)" d="M 57.5 730 L 232.5 730 C 232.99245 730 233.48017 730.04806 233.96315 730.14419 C 234.44615 730.2402 234.91513 730.38247 235.3701 730.5709 C 235.82508 730.75936 236.2573 730.99038 236.66677 731.2639 C 237.07622 731.53756 237.45507 731.84848 237.80329 732.19668 C 238.15149 732.54489 238.4624 732.92379 238.73601 733.33328 C 239.00959 733.7427 239.2406 734.17489 239.42906 734.6298 C 239.61753 735.0848 239.75978 735.5538 239.85587 736.03677 C 239.95194 736.5198 239.99999 737.0075 240 737.5 L 240 772.5 C 239.99999 772.99246 239.95194 773.4801 239.85587 773.9631 C 239.75978 774.44607 239.61753 774.91506 239.42906 775.37 C 239.2406 775.825 239.00959 776.2572 238.736 776.6667 C 238.46239 777.0761 238.15149 777.45498 237.80329 777.8032 C 237.45507 778.1514 237.07622 778.46237 236.66675 778.7359 C 236.25728 779.0095 235.82506 779.24057 235.37009 779.42898 C 234.91513 779.61746 234.44615 779.7597 233.96315 779.85586 C 233.48017 779.9519 232.99245 779.99996 232.5 780 L 57.5 780 C 57.00754 779.99996 56.519819 779.9519 56.03682 779.85586 C 55.55382 779.7597 55.08484 779.61746 54.629869 779.42898 C 54.1749 779.24057 53.742685 779.00949 53.333219 778.73587 C 52.923757 778.46237 52.544916 778.1514 52.196699 777.8032 C 51.848474 777.45498 51.537569 777.0761 51.263975 776.6667 C 50.99038 776.2572 50.759355 775.825 50.570898 775.37 C 50.38244 774.91506 50.240179 774.44607 50.144105 773.9631 C 50.04803 773.4801 49.999998 772.99246 50 772.5 L 50 737.5 C 49.999998 737.0075 50.04803 736.5198 50.144105 736.0368 C 50.240179 735.5538 50.38244 735.0848 50.570898 734.6298 C 50.759355 734.17489 50.99038 733.7427 51.263975 733.33328 C 51.537569 732.92379 51.848474 732.54489 52.196699 732.19668 C 52.544916 731.84848 52.923757 731.53756 53.333219 731.2639 C 53.742685 730.9903 54.1749 730.7593 54.629869 730.57089 C 55.08484 730.38247 55.55382 730.2402 56.036817 730.1441 C 56.519815 730.04806 57.00754 730 57.5 730 Z " fill="#ffffff"/>
<path transform="matrix(.71940049,0,0,.71940049,.35970024,.35970024)" stroke-width="1" stroke-linecap="butt" stroke-miterlimit="4" stroke-linejoin="miter" fill="none" stroke="#000000" d="M 57.5 730 L 232.5 730 C 232.99245 730 233.48017 730.04806 233.96315 730.14419 C 234.44615 730.2402 234.91513 730.38247 235.3701 730.5709 C 235.82508 730.75936 236.2573 730.99038 236.66677 731.2639 C 237.07622 731.53756 237.45507 731.84848 237.80329 732.19668 C 238.15149 732.54489 238.4624 732.92379 238.73601 733.33328 C 239.00959 733.7427 239.2406 734.17489 239.42906 734.6298 C 239.61753 735.0848 239.75978 735.5538 239.85587 736.03677 C 239.95194 736.5198 239.99999 737.0075 240 737.5 L 240 772.5 C 239.99999 772.99246 239.95194 773.4801 239.85587 773.9631 C 239.75978 774.44607 239.61753 774.91506 239.42906 775.37 C 239.2406 775.825 239.00959 776.2572 238.736 776.6667 C 238.46239 777.0761 238.15149 777.45498 237.80329 777.8032 C 237.45507 778.1514 237.07622 778.46237 236.66675 778.7359 C 236.25728 779.0095 235.82506 779.24057 235.37009 779.42898 C 234.91513 779.61746 234.44615 779.7597 233.96315 779.85586 C 233.48017 779.9519 232.99245 779.99996 232.5 780 L 57.5 780 C 57.00754 779.99996 56.519819 779.9519 56.03682 779.85586 C 55.55382 779.7597 55.08484 779.61746 54.629869 779.42898 C 54.1749 779.24057 53.742685 779.00949 53.333219 778.73587 C 52.923757 778.46237 52.544916 778.1514 52.196699 777.8032 C 51.848474 777.45498 51.537569 777.0761 51.263975 776.6667 C 50.99038 776.2572 50.759355 775.825 50.570898 775.37 C 50.38244 774.91506 50.240179 774.44607 50.144105 773.9631 C 50.04803 773.4801 49.999998 772.99246 50 772.5 L 50 737.5 C 49.999998 737.0075 50.04803 736.5198 50.144105 736.0368 C 50.240179 735.5538 50.38244 735.0848 50.570898 734.6298 C 50.759355 734.17489 50.99038 733.7427 51.263975 733.33328 C 51.537569 732.92379 51.848474 732.54489 52.196699 732.19668 C 52.544916 731.84848 52.923757 731.53756 53.333219 731.2639 C 53.742685 730.9903 54.1749 730.7593 54.629869 730.57089 C 55.08484 730.38247 55.55382 730.2402 56.036817 730.1441 C 56.519815 730.04806 57.00754 730 57.5 730 Z "/>
<g id="Layer-1" data-name="P">
</g>
<text xml:space="preserve" transform="matrix(.71940049 0 0 .71940049 0 0)" font-size="12" font-family="Arial" font-weight="bold"><tspan y="752" x="73.984378 81.98837 85.984378 92.65637 96.652378 103.32437 107.32037 113.99237 117.32837 121.32437 124.66037 131.99237 135.32837 142.66037 149.99237 154.66037 161.33237 164.66837 168.66437 175.99637 179.33237 186.66437 190.00037 197.33237 204.66437 209.33237">State:5 - Floor3 to Floor2</tspan></text>
<g id="Layer-1" data-name="P">
<g id="Layer-2" data-name="Span">
</g>
</g>
<text xml:space="preserve" transform="matrix(.71940049 0 0 .71940049 0 0)" font-size="12" font-family="ArialMT"><tspan y="752" x="215.98438"> </tspan></text>
<g id="Layer-1" data-name="P">
</g>
<text xml:space="preserve" transform="matrix(.71940049 0 0 .71940049 0 0)" font-size="12" font-family="ArialMT"><tspan y="767" x="52.453126 60.457128 69.121128 72.45712 79.465129 82.801128 89.47313 96.14513 104.80913 111.481128 114.81712 118.813129 122.149127 130.81313 140.14913 149.48513 158.14913 161.48513 168.49312 171.82912 178.50112 181.83712 185.83312 189.16912 197.83312 201.16912 209.17311 217.17711 220.5131 227.5211 230.8571">AC = down - DOOR = 0 - DISP = 3</tspan></text>
<path transform="matrix(.71940049,0,0,.71940049,.35970024,.35970024)" d="M 57.5 300 L 232.5 300 C 232.99245 300 233.48017 300.04804 233.96315 300.14408 C 234.44615 300.24018 234.91513 300.38243 235.3701 300.57087 C 235.82508 300.75935 236.2573 300.9904 236.66677 301.26399 C 237.07622 301.53758 237.45507 301.84846 237.80329 302.1967 C 238.15149 302.5449 238.4624 302.92375 238.73601 303.3332 C 239.00959 303.74269 239.2406 304.1749 239.42906 304.62986 C 239.61753 305.0848 239.75978 305.55378 239.85587 306.03678 C 239.95194 306.5198 239.99999 307.00755 240 307.5 L 240 342.5 C 239.99999 342.99244 239.95194 343.48014 239.85587 343.96315 C 239.75978 344.44615 239.61753 344.9151 239.42906 345.3701 C 239.2406 345.82508 239.00959 346.25727 238.736 346.66673 C 238.46239 347.07624 238.15149 347.45509 237.80329 347.80329 C 237.45507 348.15153 237.07622 348.46244 236.66675 348.73603 C 236.25728 349.00959 235.82506 349.2406 235.37009 349.42906 C 234.91513 349.6175 234.44615 349.75978 233.96315 349.85585 C 233.48017 349.95195 232.99245 349.99998 232.5 350 L 57.5 350 C 57.00754 349.99998 56.519819 349.95195 56.03682 349.85585 C 55.55382 349.75978 55.08484 349.6175 54.629869 349.42906 C 54.1749 349.2406 53.742685 349.00959 53.333219 348.736 C 52.923757 348.4624 52.544916 348.15153 52.196699 347.80329 C 51.848474 347.45509 51.537569 347.07624 51.263975 346.66676 C 50.99038 346.2573 50.759355 345.82508 50.570898 345.3701 C 50.38244 344.9151 50.240179 344.44615 50.144105 343.96315 C 50.04803 343.48014 49.999998 342.99244 50 342.5 L 50 307.5 C 49.999998 307.00755 50.04803 306.5198 50.144105 306.03678 C 50.240179 305.55378 50.38244 305.0848 50.570898 304.62986 C 50.759355 304.1749 50.99038 303.74269 51.263975 303.3332 C 51.537569 302.92375 51.848474 302.5449 52.196699 302.1967 C 52.544916 301.84846 52.923757 301.53758 53.333219 301.26399 C 53.742685 300.9904 54.1749 300.75935 54.629869 300.57087 C 55.08484 300.38243 55.55382 300.24018 56.036817 300.14408 C 56.519815 300.04804 57.00754 300 57.5 300 Z " fill="#ffffff"/>
<path transform="matrix(.71940049,0,0,.71940049,.35970024,.35970024)" stroke-width="1" stroke-linecap="butt" stroke-miterlimit="4" stroke-linejoin="miter" fill="none" stroke="#000000" d="M 57.5 300 L 232.5 300 C 232.99245 300 233.48017 300.04804 233.96315 300.14408 C 234.44615 300.24018 234.91513 300.38243 235.3701 300.57087 C 235.82508 300.75935 236.2573 300.9904 236.66677 301.26399 C 237.07622 301.53758 237.45507 301.84846 237.80329 302.1967 C 238.15149 302.5449 238.4624 302.92375 238.73601 303.3332 C 239.00959 303.74269 239.2406 304.1749 239.42906 304.62986 C 239.61753 305.0848 239.75978 305.55378 239.85587 306.03678 C 239.95194 306.5198 239.99999 307.00755 240 307.5 L 240 342.5 C 239.99999 342.99244 239.95194 343.48014 239.85587 343.96315 C 239.75978 344.44615 239.61753 344.9151 239.42906 345.3701 C 239.2406 345.82508 239.00959 346.25727 238.736 346.66673 C 238.46239 347.07624 238.15149 347.45509 237.80329 347.80329 C 237.45507 348.15153 237.07622 348.46244 236.66675 348.73603 C 236.25728 349.00959 235.82506 349.2406 235.37009 349.42906 C 234.91513 349.6175 234.44615 349.75978 233.96315 349.85585 C 233.48017 349.95195 232.99245 349.99998 232.5 350 L 57.5 350 C 57.00754 349.99998 56.519819 349.95195 56.03682 349.85585 C 55.55382 349.75978 55.08484 349.6175 54.629869 349.42906 C 54.1749 349.2406 53.742685 349.00959 53.333219 348.736 C 52.923757 348.4624 52.544916 348.15153 52.196699 347.80329 C 51.848474 347.45509 51.537569 347.07624 51.263975 346.66676 C 50.99038 346.2573 50.759355 345.82508 50.570898 345.3701 C 50.38244 344.9151 50.240179 344.44615 50.144105 343.96315 C 50.04803 343.48014 49.999998 342.99244 50 342.5 L 50 307.5 C 49.999998 307.00755 50.04803 306.5198 50.144105 306.03678 C 50.240179 305.55378 50.38244 305.0848 50.570898 304.62986 C 50.759355 304.1749 50.99038 303.74269 51.263975 303.3332 C 51.537569 302.92375 51.848474 302.5449 52.196699 302.1967 C 52.544916 301.84846 52.923757 301.53758 53.333219 301.26399 C 53.742685 300.9904 54.1749 300.75935 54.629869 300.57087 C 55.08484 300.38243 55.55382 300.24018 56.036817 300.14408 C 56.519815 300.04804 57.00754 300 57.5 300 Z "/>
<g id="Layer-1" data-name="P">
</g>
<text xml:space="preserve" transform="matrix(.71940049 0 0 .71940049 0 0)" font-size="12" font-family="Arial" font-weight="bold"><tspan y="322" x="76.671878 84.67587 88.671878 95.34387 99.339878 106.01187 110.00787 116.67987 120.01587 124.01187 127.34787 134.67987 138.01587 145.34787 152.67987 157.34787 164.01987 167.35587 171.35187 180.01587 189.35187 200.67987 209.34387">State:6 - Floor2 (DOWN)</tspan></text>
<g id="Layer-1" data-name="P">
<g id="Layer-2" data-name="Span">
</g>
</g>
<text xml:space="preserve" transform="matrix(.71940049 0 0 .71940049 0 0)" font-size="12" font-family="ArialMT"><tspan y="322" x="213.32813"> </tspan></text>
<g id="Layer-1" data-name="P">
</g>
<text xml:space="preserve" transform="matrix(.71940049 0 0 .71940049 0 0)" font-size="12" font-family="ArialMT"><tspan y="337" x="55.46875 63.47275 72.13675 75.47275 82.48075 85.81675 91.81675 95.15275 101.82475 108.49675 111.83275 115.82875 119.16475 127.82875 137.16475 146.50075 155.16475 158.50075 165.50875 168.84474 175.51674 178.85274 182.84874 186.18474 194.84874 198.18474 206.18874 214.19274 217.52873 224.53673 227.87273">AC = stop - DOOR = 1 - DISP = 2</tspan></text>
<path transform="matrix(.71940049,0,0,.71940049,.35970024,.35970024)" d="M 387.5 730 L 562.5 730 C 562.9925 730 563.4802 730.04806 563.9632 730.14419 C 564.44619 730.2402 564.9151 730.38247 565.37008 730.5709 C 565.825 730.75936 566.25729 730.99038 566.66677 731.2639 C 567.07626 731.53756 567.4551 731.84848 567.8033 732.19668 C 568.1515 732.54489 568.46237 732.92379 568.73599 733.33328 C 569.0095 733.7427 569.24057 734.17489 569.429 734.6298 C 569.61746 735.0848 569.7597 735.5538 569.85586 736.03677 C 569.95199 736.5198 570 737.0075 570 737.5 L 570 772.5 C 570 772.99246 569.95199 773.4801 569.85586 773.9631 C 569.7597 774.44607 569.61746 774.91506 569.429 775.37 C 569.24057 775.825 569.0095 776.2572 568.73599 776.6667 C 568.46237 777.0761 568.1515 777.45498 567.8033 777.8032 C 567.4551 778.1514 567.07626 778.46237 566.66677 778.7359 C 566.25729 779.0095 565.825 779.24057 565.37008 779.42898 C 564.9151 779.61746 564.44619 779.7597 563.9632 779.85586 C 563.4802 779.9519 562.9925 779.99996 562.5 780 L 387.5 780 C 387.00755 779.99996 386.5198 779.9519 386.0368 779.85586 C 385.5538 779.7597 385.0848 779.61746 384.62983 779.42898 C 384.17488 779.24057 383.74266 779.00949 383.33317 778.73587 C 382.9237 778.46237 382.54487 778.1514 382.19667 777.8032 C 381.84843 777.45498 381.53755 777.0761 381.26396 776.6667 C 380.99037 776.2572 380.7593 775.825 380.57087 775.37 C 380.38243 774.91506 380.24018 774.44607 380.14408 773.9631 C 380.048 773.4801 379.99998 772.99246 380 772.5 L 380 737.5 C 379.99998 737.0075 380.048 736.5198 380.14405 736.0368 C 380.24015 735.5538 380.38243 735.0848 380.57087 734.6298 C 380.7593 734.17489 380.99034 733.7427 381.26393 733.33328 C 381.5375 732.92379 381.84843 732.54489 382.19667 732.19668 C 382.54487 731.84848 382.9237 731.53756 383.3332 731.2639 C 383.74266 730.9903 384.17488 730.7593 384.62983 730.57089 C 385.0848 730.38247 385.5538 730.2402 386.0368 730.1441 C 386.5198 730.04806 387.00755 730 387.5 730 Z " fill="#ffffff"/>
<path transform="matrix(.71940049,0,0,.71940049,.35970024,.35970024)" stroke-width="1" stroke-linecap="butt" stroke-miterlimit="4" stroke-linejoin="miter" fill="none" stroke="#000000" d="M 387.5 730 L 562.5 730 C 562.9925 730 563.4802 730.04806 563.9632 730.14419 C 564.44619 730.2402 564.9151 730.38247 565.37008 730.5709 C 565.825 730.75936 566.25729 730.99038 566.66677 731.2639 C 567.07626 731.53756 567.4551 731.84848 567.8033 732.19668 C 568.1515 732.54489 568.46237 732.92379 568.73599 733.33328 C 569.0095 733.7427 569.24057 734.17489 569.429 734.6298 C 569.61746 735.0848 569.7597 735.5538 569.85586 736.03677 C 569.95199 736.5198 570 737.0075 570 737.5 L 570 772.5 C 570 772.99246 569.95199 773.4801 569.85586 773.9631 C 569.7597 774.44607 569.61746 774.91506 569.429 775.37 C 569.24057 775.825 569.0095 776.2572 568.73599 776.6667 C 568.46237 777.0761 568.1515 777.45498 567.8033 777.8032 C 567.4551 778.1514 567.07626 778.46237 566.66677 778.7359 C 566.25729 779.0095 565.825 779.24057 565.37008 779.42898 C 564.9151 779.61746 564.44619 779.7597 563.9632 779.85586 C 563.4802 779.9519 562.9925 779.99996 562.5 780 L 387.5 780 C 387.00755 779.99996 386.5198 779.9519 386.0368 779.85586 C 385.5538 779.7597 385.0848 779.61746 384.62983 779.42898 C 384.17488 779.24057 383.74266 779.00949 383.33317 778.73587 C 382.9237 778.46237 382.54487 778.1514 382.19667 777.8032 C 381.84843 777.45498 381.53755 777.0761 381.26396 776.6667 C 380.99037 776.2572 380.7593 775.825 380.57087 775.37 C 380.38243 774.91506 380.24018 774.44607 380.14408 773.9631 C 380.048 773.4801 379.99998 772.99246 380 772.5 L 380 737.5 C 379.99998 737.0075 380.048 736.5198 380.14405 736.0368 C 380.24015 735.5538 380.38243 735.0848 380.57087 734.6298 C 380.7593 734.17489 380.99034 733.7427 381.26393 733.33328 C 381.5375 732.92379 381.84843 732.54489 382.19667 732.19668 C 382.54487 731.84848 382.9237 731.53756 383.3332 731.2639 C 383.74266 730.9903 384.17488 730.7593 384.62983 730.57089 C 385.0848 730.38247 385.5538 730.2402 386.0368 730.1441 C 386.5198 730.04806 387.00755 730 387.5 730 Z "/>
<g id="Layer-1" data-name="P">
</g>
<text xml:space="preserve" transform="matrix(.71940049 0 0 .71940049 0 0)" font-size="12" font-family="Arial" font-weight="bold"><tspan y="752" x="403.98439 411.98838 415.98439 422.65638 426.65238 433.32438 437.32038 443.99238 447.32838 451.32438 454.66038 461.99238 465.32838 472.66038 479.99238 484.66038 491.33238 494.66838 498.66438 505.99638 509.33238 516.66439 520.00039 527.33236 534.6643 539.33236">State:7 - Floor2 to Floor1</tspan></text>
<g id="Layer-1" data-name="P">
<g id="Layer-2" data-name="Span">
</g>
</g>
<text xml:space="preserve" transform="matrix(.71940049 0 0 .71940049 0 0)" font-size="12" font-family="ArialMT"><tspan y="752" x="545.9844"> </tspan></text>
<g id="Layer-1" data-name="P">
</g>
<text xml:space="preserve" transform="matrix(.71940049 0 0 .71940049 0 0)" font-size="12" font-family="ArialMT"><tspan y="767" x="382.45314 390.45713 399.12113 402.45713 409.46513 412.80113 419.4731 426.1451 434.8091 441.4811 444.8171 448.8131 452.1491 460.8131 470.1491 479.4851 488.1491 491.4851 498.4931 501.8291 508.5011 511.8371 515.83309 519.16909 527.83309 531.16909 539.1731 547.1771 550.5131 557.5211 560.8571">AC = down - DOOR = 0 - DISP = 2</tspan></text>
<path transform="matrix(.71940049,0,0,.71940049,.35970024,.35970024)" d="M 387.5 300 L 562.5 300 C 562.9925 300 563.4802 300.04804 563.9632 300.14408 C 564.44619 300.24018 564.9151 300.38243 565.37008 300.57087 C 565.825 300.75935 566.25729 300.9904 566.66677 301.26399 C 567.07626 301.53758 567.4551 301.84846 567.8033 302.1967 C 568.1515 302.5449 568.46237 302.92375 568.73599 303.3332 C 569.0095 303.74269 569.24057 304.1749 569.429 304.62986 C 569.61746 305.0848 569.7597 305.55378 569.85586 306.03678 C 569.95199 306.5198 570 307.00755 570 307.5 L 570 342.5 C 570 342.99244 569.95199 343.48014 569.85586 343.96315 C 569.7597 344.44615 569.61746 344.9151 569.429 345.3701 C 569.24057 345.82508 569.0095 346.25727 568.73599 346.66673 C 568.46237 347.07624 568.1515 347.45509 567.8033 347.80329 C 567.4551 348.15153 567.07626 348.46244 566.66677 348.73603 C 566.25729 349.00959 565.825 349.2406 565.37008 349.42906 C 564.9151 349.6175 564.44619 349.75978 563.9632 349.85585 C 563.4802 349.95195 562.9925 349.99998 562.5 350 L 387.5 350 C 387.00755 349.99998 386.5198 349.95195 386.0368 349.85585 C 385.5538 349.75978 385.0848 349.6175 384.62983 349.42906 C 384.17488 349.2406 383.74266 349.00959 383.33317 348.736 C 382.9237 348.4624 382.54487 348.15153 382.19667 347.80329 C 381.84843 347.45509 381.53755 347.07624 381.26396 346.66676 C 380.99037 346.2573 380.7593 345.82508 380.57087 345.3701 C 380.38243 344.9151 380.24018 344.44615 380.14408 343.96315 C 380.048 343.48014 379.99998 342.99244 380 342.5 L 380 307.5 C 379.99998 307.00755 380.048 306.5198 380.14405 306.03678 C 380.24015 305.55378 380.38243 305.0848 380.57087 304.62986 C 380.7593 304.1749 380.99034 303.74269 381.26393 303.3332 C 381.5375 302.92375 381.84843 302.5449 382.19667 302.1967 C 382.54487 301.84846 382.9237 301.53758 383.3332 301.26399 C 383.74266 300.9904 384.17488 300.75935 384.62983 300.57087 C 385.0848 300.38243 385.5538 300.24018 386.0368 300.14408 C 386.5198 300.04804 387.00755 300 387.5 300 Z " fill="#ffffff"/>
<path transform="matrix(.71940049,0,0,.71940049,.35970024,.35970024)" stroke-width="1" stroke-linecap="butt" stroke-miterlimit="4" stroke-linejoin="miter" fill="none" stroke="#000000" d="M 387.5 300 L 562.5 300 C 562.9925 300 563.4802 300.04804 563.9632 300.14408 C 564.44619 300.24018 564.9151 300.38243 565.37008 300.57087 C 565.825 300.75935 566.25729 300.9904 566.66677 301.26399 C 567.07626 301.53758 567.4551 301.84846 567.8033 302.1967 C 568.1515 302.5449 568.46237 302.92375 568.73599 303.3332 C 569.0095 303.74269 569.24057 304.1749 569.429 304.62986 C 569.61746 305.0848 569.7597 305.55378 569.85586 306.03678 C 569.95199 306.5198 570 307.00755 570 307.5 L 570 342.5 C 570 342.99244 569.95199 343.48014 569.85586 343.96315 C 569.7597 344.44615 569.61746 344.9151 569.429 345.3701 C 569.24057 345.82508 569.0095 346.25727 568.73599 346.66673 C 568.46237 347.07624 568.1515 347.45509 567.8033 347.80329 C 567.4551 348.15153 567.07626 348.46244 566.66677 348.73603 C 566.25729 349.00959 565.825 349.2406 565.37008 349.42906 C 564.9151 349.6175 564.44619 349.75978 563.9632 349.85585 C 563.4802 349.95195 562.9925 349.99998 562.5 350 L 387.5 350 C 387.00755 349.99998 386.5198 349.95195 386.0368 349.85585 C 385.5538 349.75978 385.0848 349.6175 384.62983 349.42906 C 384.17488 349.2406 383.74266 349.00959 383.33317 348.736 C 382.9237 348.4624 382.54487 348.15153 382.19667 347.80329 C 381.84843 347.45509 381.53755 347.07624 381.26396 346.66676 C 380.99037 346.2573 380.7593 345.82508 380.57087 345.3701 C 380.38243 344.9151 380.24018 344.44615 380.14408 343.96315 C 380.048 343.48014 379.99998 342.99244 380 342.5 L 380 307.5 C 379.99998 307.00755 380.048 306.5198 380.14405 306.03678 C 380.24015 305.55378 380.38243 305.0848 380.57087 304.62986 C 380.7593 304.1749 380.99034 303.74269 381.26393 303.3332 C 381.5375 302.92375 381.84843 302.5449 382.19667 302.1967 C 382.54487 301.84846 382.9237 301.53758 383.3332 301.26399 C 383.74266 300.9904 384.17488 300.75935 384.62983 300.57087 C 385.0848 300.38243 385.5538 300.24018 386.0368 300.14408 C 386.5198 300.04804 387.00755 300 387.5 300 Z "/>
<g id="Layer-1" data-name="P">
</g>
<text xml:space="preserve" transform="matrix(.71940049 0 0 .71940049 0 0)" font-size="12" font-family="Arial" font-weight="bold"><tspan y="322" x="405.98439 413.98838 417.98439 424.65638 428.65238 435.32438 439.32038 445.99238 449.32838 453.32438 456.66038 463.99238 467.32838 474.66038 481.99238 486.66038 493.33238 496.66838 500.66438 508.66838 516.00039 524.0044 532.0084 540.01248">State:8 - Floor2 (SLEEP)</tspan></text>
<g id="Layer-1" data-name="P">
</g>
<text xml:space="preserve" transform="matrix(.71940049 0 0 .71940049 0 0)" font-size="12" font-family="ArialMT"><tspan y="337" x="385.46876 393.47276 402.13676 405.47276 412.48075 415.81675 421.81675 425.15275 431.82475 438.49674 441.83274 445.82875 449.16474 457.82875 467.16474 476.50074 485.16474 488.50074 495.50874 498.84474 505.51673 508.85273 512.8487 516.1847 524.8487 528.1847 536.1887 544.19277 547.52877 554.53677 557.87277">AC = stop - DOOR = 0 - DISP = 2</tspan></text>
<path transform="matrix(.71940049,0,0,.71940049,.35970024,.35970024)" d="M 57.5 100 L 232.5 100 C 232.99245 100 233.48017 100.048038 233.96315 100.144107 C 234.44615 100.24017 234.91513 100.38244 235.3701 100.57089 C 235.82508 100.759349 236.2573 100.99037 236.66677 101.26397 C 237.07622 101.53757 237.45507 101.84847 237.80329 102.19669 C 238.15149 102.54491 238.4624 102.92375 238.73601 103.33321 C 239.00959 103.742679 239.2406 104.17489 239.42906 104.62987 C 239.61753 105.08484 239.75978 105.55382 239.85587 106.03681 C 239.95194 106.51981 239.99999 107.007549 240 107.5 L 240 142.5 C 239.99999 142.99245 239.95194 143.48018 239.85587 143.96317 C 239.75978 144.44615 239.61753 144.91513 239.42906 145.3701 C 239.2406 145.82508 239.00959 146.2573 238.736 146.66675 C 238.46239 147.07622 238.15149 147.45507 237.80329 147.80329 C 237.45507 148.1515 237.07622 148.4624 236.66675 148.736 C 236.25728 149.0096 235.82506 149.24062 235.37009 149.42908 C 234.91513 149.61754 234.44615 149.7598 233.96315 149.85587 C 233.48017 149.95195 232.99245 149.99999 232.5 150 L 57.5 150 C 57.00754 149.99999 56.519819 149.95195 56.03682 149.85587 C 55.55382 149.7598 55.08484 149.61754 54.629869 149.42908 C 54.1749 149.24062 53.742685 149.0096 53.333219 148.736 C 52.923757 148.4624 52.544916 148.1515 52.196699 147.80329 C 51.848474 147.45507 51.537569 147.07622 51.263975 146.66675 C 50.99038 146.2573 50.759355 145.82508 50.570898 145.3701 C 50.38244 144.91513 50.240179 144.44615 50.144105 143.96317 C 50.04803 143.48018 49.999998 142.99245 50 142.5 L 50 107.5 C 49.999998 107.007549 50.04803 106.51981 50.144105 106.03681 C 50.240179 105.55382 50.38244 105.08484 50.570898 104.62987 C 50.759355 104.17489 50.99038 103.742679 51.263975 103.33321 C 51.537569 102.92375 51.848474 102.54491 52.196699 102.19669 C 52.544916 101.84847 52.923757 101.53757 53.333219 101.26397 C 53.742685 100.99037 54.1749 100.759349 54.629869 100.57089 C 55.08484 100.38244 55.55382 100.24017 56.036817 100.14411 C 56.519815 100.048038 57.00754 100 57.5 100 Z " fill="#ffffff"/>
<path transform="matrix(.71940049,0,0,.71940049,.35970024,.35970024)" stroke-width="1" stroke-linecap="butt" stroke-miterlimit="4" stroke-linejoin="miter" fill="none" stroke="#000000" d="M 57.5 100 L 232.5 100 C 232.99245 100 233.48017 100.048038 233.96315 100.144107 C 234.44615 100.24017 234.91513 100.38244 235.3701 100.57089 C 235.82508 100.759349 236.2573 100.99037 236.66677 101.26397 C 237.07622 101.53757 237.45507 101.84847 237.80329 102.19669 C 238.15149 102.54491 238.4624 102.92375 238.73601 103.33321 C 239.00959 103.742679 239.2406 104.17489 239.42906 104.62987 C 239.61753 105.08484 239.75978 105.55382 239.85587 106.03681 C 239.95194 106.51981 239.99999 107.007549 240 107.5 L 240 142.5 C 239.99999 142.99245 239.95194 143.48018 239.85587 143.96317 C 239.75978 144.44615 239.61753 144.91513 239.42906 145.3701 C 239.2406 145.82508 239.00959 146.2573 238.736 146.66675 C 238.46239 147.07622 238.15149 147.45507 237.80329 147.80329 C 237.45507 148.1515 237.07622 148.4624 236.66675 148.736 C 236.25728 149.0096 235.82506 149.24062 235.37009 149.42908 C 234.91513 149.61754 234.44615 149.7598 233.96315 149.85587 C 233.48017 149.95195 232.99245 149.99999 232.5 150 L 57.5 150 C 57.00754 149.99999 56.519819 149.95195 56.03682 149.85587 C 55.55382 149.7598 55.08484 149.61754 54.629869 149.42908 C 54.1749 149.24062 53.742685 149.0096 53.333219 148.736 C 52.923757 148.4624 52.544916 148.1515 52.196699 147.80329 C 51.848474 147.45507 51.537569 147.07622 51.263975 146.66675 C 50.99038 146.2573 50.759355 145.82508 50.570898 145.3701 C 50.38244 144.91513 50.240179 144.44615 50.144105 143.96317 C 50.04803 143.48018 49.999998 142.99245 50 142.5 L 50 107.5 C 49.999998 107.007549 50.04803 106.51981 50.144105 106.03681 C 50.240179 105.55382 50.38244 105.08484 50.570898 104.62987 C 50.759355 104.17489 50.99038 103.742679 51.263975 103.33321 C 51.537569 102.92375 51.848474 102.54491 52.196699 102.19669 C 52.544916 101.84847 52.923757 101.53757 53.333219 101.26397 C 53.742685 100.99037 54.1749 100.759349 54.629869 100.57089 C 55.08484 100.38244 55.55382 100.24017 56.036817 100.14411 C 56.519815 100.048038 57.00754 100 57.5 100 Z "/>
<g id="Layer-1" data-name="P">
</g>
<text xml:space="preserve" transform="matrix(.71940049 0 0 .71940049 0 0)" font-size="12" font-family="Arial" font-weight="bold"><tspan y="122" x="75.984378 83.98837 87.984378 94.65637 98.652378 105.32437 109.32037 115.99237 119.32837 123.32437 126.66037 133.99237 137.32837 144.66037 151.99237 156.66037 163.33237 166.66837 170.66437 178.66837 186.00037 194.00437 202.00836 210.01236">State:9 - Floor1 (SLEEP)</tspan></text>
<g id="Layer-1" data-name="P">
</g>
<text xml:space="preserve" transform="matrix(.71940049 0 0 .71940049 0 0)" font-size="12" font-family="ArialMT"><tspan y="137" x="55.46875 63.47275 72.13675 75.47275 82.48075 85.81675 91.81675 95.15275 101.82475 108.49675 111.83275 115.82875 119.16475 127.82875 137.16475 146.50075 155.16475 158.50075 165.50875 168.84474 175.51674 178.85274 182.84874 186.18474 194.84874 198.18474 206.18874 214.19274 217.52873 224.53673 227.87273">AC = stop - DOOR = 0 - DISP = 1</tspan></text>
<path transform="matrix(.71940049,0,0,.71940049,.35970024,.35970024)" d="M 57.5 940 L 232.5 940 C 232.99245 940 233.48017 940.04806 233.96315 940.1441 C 234.44615 940.2402 234.91513 940.38247 235.3701 940.57089 C 235.82508 940.75936 236.2573 940.99038 236.66677 941.26388 C 237.07622 941.5375 237.45507 941.84848 237.80329 942.19668 C 238.15149 942.54489 238.4624 942.9237 238.73601 943.3332 C 239.00959 943.7426 239.2406 944.1748 239.42906 944.62979 C 239.61753 945.0847 239.75978 945.5537 239.85587 946.03677 C 239.95194 946.5198 239.99999 947.0075 240 947.5 L 240 982.5 C 239.99999 982.99246 239.95194 983.48019 239.85587 983.96316 C 239.75978 984.4461 239.61753 984.91506 239.42906 985.37008 C 239.2406 985.82498 239.00959 986.2572 238.736 986.6667 C 238.46239 987.0762 238.15149 987.455 237.80329 987.8032 C 237.45507 988.1514 237.07622 988.4623 236.66675 988.7359 C 236.25728 989.00949 235.82506 989.2405 235.37009 989.42898 C 234.91513 989.6174 234.44615 989.7597 233.96315 989.85586 C 233.48017 989.9519 232.99245 989.99996 232.5 990 L 57.5 990 C 57.00754 989.99996 56.519819 989.9519 56.03682 989.8558 C 55.55382 989.75967 55.08484 989.6174 54.629869 989.42898 C 54.1749 989.2405 53.742685 989.00949 53.333219 988.7359 C 52.923757 988.4623 52.544916 988.1514 52.196699 987.8032 C 51.848474 987.455 51.537569 987.0762 51.263975 986.6667 C 50.99038 986.2572 50.759355 985.82498 50.570898 985.37008 C 50.38244 984.91506 50.240179 984.44607 50.144105 983.9631 C 50.04803 983.4801 49.999998 982.99246 50 982.5 L 50 947.5 C 49.999998 947.0075 50.04803 946.5198 50.144105 946.03677 C 50.240179 945.5537 50.38244 945.0847 50.570898 944.62979 C 50.759355 944.1748 50.99038 943.7426 51.263975 943.3332 C 51.537569 942.9237 51.848474 942.54489 52.196699 942.19668 C 52.544916 941.84848 52.923757 941.5375 53.333219 941.26388 C 53.742685 940.99038 54.1749 940.75936 54.629869 940.57089 C 55.08484 940.38247 55.55382 940.2402 56.036817 940.1441 C 56.519815 940.04806 57.00754 940 57.5 940 Z " fill="#ffffff"/>
<path transform="matrix(.71940049,0,0,.71940049,.35970024,.35970024)" stroke-width="1" stroke-linecap="butt" stroke-miterlimit="4" stroke-linejoin="miter" fill="none" stroke="#000000" d="M 57.5 940 L 232.5 940 C 232.99245 940 233.48017 940.04806 233.96315 940.1441 C 234.44615 940.2402 234.91513 940.38247 235.3701 940.57089 C 235.82508 940.75936 236.2573 940.99038 236.66677 941.26388 C 237.07622 941.5375 237.45507 941.84848 237.80329 942.19668 C 238.15149 942.54489 238.4624 942.9237 238.73601 943.3332 C 239.00959 943.7426 239.2406 944.1748 239.42906 944.62979 C 239.61753 945.0847 239.75978 945.5537 239.85587 946.03677 C 239.95194 946.5198 239.99999 947.0075 240 947.5 L 240 982.5 C 239.99999 982.99246 239.95194 983.48019 239.85587 983.96316 C 239.75978 984.4461 239.61753 984.91506 239.42906 985.37008 C 239.2406 985.82498 239.00959 986.2572 238.736 986.6667 C 238.46239 987.0762 238.15149 987.455 237.80329 987.8032 C 237.45507 988.1514 237.07622 988.4623 236.66675 988.7359 C 236.25728 989.00949 235.82506 989.2405 235.37009 989.42898 C 234.91513 989.6174 234.44615 989.7597 233.96315 989.85586 C 233.48017 989.9519 232.99245 989.99996 232.5 990 L 57.5 990 C 57.00754 989.99996 56.519819 989.9519 56.03682 989.8558 C 55.55382 989.75967 55.08484 989.6174 54.629869 989.42898 C 54.1749 989.2405 53.742685 989.00949 53.333219 988.7359 C 52.923757 988.4623 52.544916 988.1514 52.196699 987.8032 C 51.848474 987.455 51.537569 987.0762 51.263975 986.6667 C 50.99038 986.2572 50.759355 985.82498 50.570898 985.37008 C 50.38244 984.91506 50.240179 984.44607 50.144105 983.9631 C 50.04803 983.4801 49.999998 982.99246 50 982.5 L 50 947.5 C 49.999998 947.0075 50.04803 946.5198 50.144105 946.03677 C 50.240179 945.5537 50.38244 945.0847 50.570898 944.62979 C 50.759355 944.1748 50.99038 943.7426 51.263975 943.3332 C 51.537569 942.9237 51.848474 942.54489 52.196699 942.19668 C 52.544916 941.84848 52.923757 941.5375 53.333219 941.26388 C 53.742685 940.99038 54.1749 940.75936 54.629869 940.57089 C 55.08484 940.38247 55.55382 940.2402 56.036817 940.1441 C 56.519815 940.04806 57.00754 940 57.5 940 Z "/>
<g id="Layer-1" data-name="P">
</g>
<text xml:space="preserve" transform="matrix(.71940049 0 0 .71940049 0 0)" font-size="12" font-family="Arial" font-weight="bold"><tspan y="962" x="72.65625 80.66025 84.65625 91.32825 95.32425 101.99625 105.99225 112.664249 119.33624 122.67224 126.66824 130.00424 137.33625 140.67224 148.00424 155.33625 160.00424 166.67624 170.01224 174.00824 182.01224 189.34424 197.34824 205.35224 213.35623">State:10 - Floor3 (SLEEP)</tspan></text>
<g id="Layer-1" data-name="P">
<g id="Layer-2" data-name="Span">
</g>
</g>
<text xml:space="preserve" transform="matrix(.71940049 0 0 .71940049 0 0)" font-size="12" font-family="ArialMT"><tspan y="962" x="217.34375"> </tspan></text>
<g id="Layer-1" data-name="P">
</g>
<text xml:space="preserve" transform="matrix(.71940049 0 0 .71940049 0 0)" font-size="12" font-family="ArialMT"><tspan y="977" x="55.46875 63.47275 72.13675 75.47275 82.48075 85.81675 91.81675 95.15275 101.82475 108.49675 111.83275 115.82875 119.16475 127.82875 137.16475 146.50075 155.16475 158.50075 165.50875 168.84474 175.51674 178.85274 182.84874 186.18474 194.84874 198.18474 206.18874 214.19274 217.52873 224.53673 227.87273">AC = stop - DOOR = 0 - DISP = 3</tspan></text>
<path transform="matrix(.71940049,0,0,.71940049,.35970024,.35970024)" stroke-width="1" stroke-linecap="butt" stroke-miterlimit="10" stroke-linejoin="miter" fill="none" stroke="#000000" d="M 570 125 L 773.63 125 "/>
<path transform="matrix(.71940049,0,0,.71940049,.35970024,.35970024)" d="M 778.88 125 L 771.88 128.5 L 773.63 125 L 771.88 121.5 L 778.88 125 Z "/>
<path transform="matrix(.71940049,0,0,.71940049,.35970024,.35970024)" stroke-width="1" stroke-linecap="butt" stroke-miterlimit="10" stroke-linejoin="miter" fill="none" stroke="#000000" d="M 778.88 125 L 771.88 128.5 L 773.63 125 L 771.88 121.5 L 778.88 125 Z "/>
<path transform="matrix(.71940049,0,0,.71940049,0,0)" d="M 616 120 L 737 120 L 737 133 L 616 133 Z " fill="#ffffff"/>
<g id="Layer-1" data-name="P">
<g id="Layer-2" data-name="Span">
</g>
<g id="Layer-2" data-name="Span">
</g>
</g>
<text xml:space="preserve" transform="matrix(.71940049 0 0 .71940049 0 0)" font-size="11" font-family="ArialMT"><tspan y="130" x="616.0156 619.0736 625.7946 631.91067 634.7706 641.49166 647.60769 650.46768 658.40969 664.5257 667.3857 675.3277 681.4437 684.3037 692.2457 698.36178 701.22177 709.16378 715.2798 718.33779 724.7618 727.81979 733.9358"> F2|F3|D2|D3|U2|U3 = 1 </tspan></text>
<path transform="matrix(.71940049,0,0,.71940049,.35970024,.35970024)" stroke-width="1" stroke-linecap="butt" stroke-miterlimit="10" stroke-linejoin="miter" fill="none" stroke="#000000" d="M 875 150 L 875 293.63 "/>
<path transform="matrix(.71940049,0,0,.71940049,.35970024,.35970024)" d="M 875 298.88 L 871.5 291.88 L 875 293.63 L 878.5 291.88 L 875 298.88 Z "/>
<path transform="matrix(.71940049,0,0,.71940049,.35970024,.35970024)" stroke-width="1" stroke-linecap="butt" stroke-miterlimit="10" stroke-linejoin="miter" fill="none" stroke="#000000" d="M 875 298.88 L 871.5 291.88 L 875 293.63 L 878.5 291.88 L 875 298.88 Z "/>
<path transform="matrix(.71940049,0,0,.71940049,0,0)" d="M 832 220 L 921 220 L 921 233 L 832 233 Z " fill="#ffffff"/>
<g id="Layer-1" data-name="P">
</g>
<text xml:space="preserve" transform="matrix(.71940049 0 0 .71940049 0 0)" font-size="11" font-family="ArialMT"><tspan y="230" x="832.4375 834.8795 837.9375 840.9955 844.05349 847.7165 854.4375 860.5535 863.4135 871.3555 877.47158 881.1346 888.47158 895.80856 901.92459 904.98257 911.40658 914.46456">if: (F2|U2)&#x0026;S2 = 1</tspan></text>
<path transform="matrix(.71940049,0,0,.71940049,.35970024,.35970024)" stroke-width="1" stroke-linecap="butt" stroke-miterlimit="10" stroke-linejoin="miter" fill="none" stroke="#000000" d="M 970 125 L 1070 125 L 1070 535 L 972.64 749.2 "/>
<path transform="matrix(.71940049,0,0,.71940049,.35970024,.35970024)" d="M 970.46 753.98 L 970.17 746.16 L 972.64 749.2 L 976.55 749.06 L 970.46 753.98 Z "/>
<path transform="matrix(.71940049,0,0,.71940049,.35970024,.35970024)" stroke-width="1" stroke-linecap="butt" stroke-miterlimit="10" stroke-linejoin="miter" fill="none" stroke="#000000" d="M 970.46 753.98 L 970.17 746.16 L 972.64 749.2 L 976.55 749.06 L 970.46 753.98 Z "/>
<path transform="matrix(.71940049,0,0,.71940049,0,0)" d="M 1003 396 L 1140 396 L 1140 409 L 1003 409 Z " fill="#ffffff"/>
<g id="Layer-1" data-name="P">
<g id="Layer-2" data-name="Span">
</g>
</g>
<text xml:space="preserve" transform="matrix(.71940049 0 0 .71940049 0 0)" font-size="11" font-family="ArialMT"><tspan y="406" x="1002.7656 1008.88168 1011.32369 1016.82369 1022.9397 1025.9977 1028.4397 1031.4977 1037.6137 1040.6716 1043.7296 1047.3926 1054.1135 1060.2295 1063.0895 1071.0315 1077.1475 1080.0075 1087.9495 1094.0654 1097.7284 1105.0654 1112.4025 1118.5184 1121.5764 1128.0004 1131.0584 1137.1743">else if1: (F3|U3|D3)&#x0026;S2 = 1 </tspan></text>
<path transform="matrix(.71940049,0,0,.71940049,.35970024,.35970024)" stroke-width="1" stroke-linecap="butt" stroke-miterlimit="10" stroke-linejoin="miter" fill="none" stroke="#000000" d="M 780 150 L 246.14 298.3 "/>
<path transform="matrix(.71940049,0,0,.71940049,.35970024,.35970024)" d="M 241.08 299.7 L 246.89 294.45 L 246.14 298.3 L 248.76 301.2 L 241.08 299.7 Z "/>
<path transform="matrix(.71940049,0,0,.71940049,.35970024,.35970024)" stroke-width="1" stroke-linecap="butt" stroke-miterlimit="10" stroke-linejoin="miter" fill="none" stroke="#000000" d="M 241.08 299.7 L 246.89 294.45 L 246.14 298.3 L 248.76 301.2 L 241.08 299.7 Z "/>
<path transform="matrix(.71940049,0,0,.71940049,0,0)" d="M 464 219 L 559 219 L 559 232 L 464 232 Z " fill="#ffffff"/>
<g id="Layer-1" data-name="P">
</g>
<text xml:space="preserve" transform="matrix(.71940049 0 0 .71940049 0 0)" font-size="11" font-family="ArialMT"><tspan y="229" x="464.26564 470.38163 472.8236 478.3236 484.4396 487.49763 489.9396 492.99763 499.11363 502.17164 505.22966 513.17166 519.28768 526.62466 533.9616 540.07766 543.1356 549.55966 552.6176">else if2: D2&#x0026;S2 = 1</tspan></text>
<path transform="matrix(.71940049,0,0,.71940049,.35970024,.35970024)" stroke-width="1" stroke-linecap="butt" stroke-miterlimit="10" stroke-linejoin="miter" fill="none" stroke="#000000" d="M 875 350 L 875 723.63 "/>
<path transform="matrix(.71940049,0,0,.71940049,.35970024,.35970024)" d="M 875 728.88 L 871.5 721.88 L 875 723.63 L 878.5 721.88 L 875 728.88 Z "/>
<path transform="matrix(.71940049,0,0,.71940049,.35970024,.35970024)" stroke-width="1" stroke-linecap="butt" stroke-miterlimit="10" stroke-linejoin="miter" fill="none" stroke="#000000" d="M 875 728.88 L 871.5 721.88 L 875 723.63 L 878.5 721.88 L 875 728.88 Z "/>
<path transform="matrix(.71940049,0,0,.71940049,0,0)" d="M 844 535 L 909 535 L 909 548 L 844 548 Z " fill="#ffffff"/>
<g id="Layer-1" data-name="P">
</g>
<text xml:space="preserve" transform="matrix(.71940049 0 0 .71940049 0 0)" font-size="11" font-family="ArialMT"><tspan y="545" x="843.8281 850.54916 856.66519 859.52517 867.46719 873.5832 876.4432 884.3852 890.5012 893.5592 899.9832 903.0412">F3|U3|D3 = 1</tspan></text>
<path transform="matrix(.71940049,0,0,.71940049,.35970024,.35970024)" stroke-width="1" stroke-linecap="butt" stroke-miterlimit="10" stroke-linejoin="miter" fill="none" stroke="#000000" d="M 780 780 L 575.07 936.14 "/>
<path transform="matrix(.71940049,0,0,.71940049,.35970024,.35970024)" d="M 570.89 939.32 L 574.34 932.3 L 575.07 936.14 L 578.58 937.86 L 570.89 939.32 Z "/>
<path transform="matrix(.71940049,0,0,.71940049,.35970024,.35970024)" stroke-width="1" stroke-linecap="butt" stroke-miterlimit="10" stroke-linejoin="miter" fill="none" stroke="#000000" d="M 570.89 939.32 L 574.34 932.3 L 575.07 936.14 L 578.58 937.86 L 570.89 939.32 Z "/>
<path transform="matrix(.71940049,0,0,.71940049,0,0)" d="M 660 854 L 693 854 L 693 867 L 660 867 Z " fill="#ffffff"/>
<g id="Layer-1" data-name="P">
</g>
<text xml:space="preserve" transform="matrix(.71940049 0 0 .71940049 0 0)" font-size="11" font-family="ArialMT"><tspan y="864" x="660.4531 667.7901 673.9061 676.9641 683.3881 686.4461">S3 = 1</tspan></text>
<path transform="matrix(.71940049,0,0,.71940049,.35970024,.35970024)" stroke-width="1" stroke-linecap="butt" stroke-miterlimit="10" stroke-linejoin="miter" fill="none" stroke="#000000" d="M 380 940 L 244.19 784.79 "/>
<path transform="matrix(.71940049,0,0,.71940049,.35970024,.35970024)" d="M 240.74 780.84 L 247.98 783.8 L 244.19 784.79 L 242.71 788.41 L 240.74 780.84 Z "/>
<path transform="matrix(.71940049,0,0,.71940049,.35970024,.35970024)" stroke-width="1" stroke-linecap="butt" stroke-miterlimit="10" stroke-linejoin="miter" fill="none" stroke="#000000" d="M 240.74 780.84 L 247.98 783.8 L 244.19 784.79 L 242.71 788.41 L 240.74 780.84 Z "/>
<path transform="matrix(.71940049,0,0,.71940049,0,0)" d="M 254 855 L 369 855 L 369 868 L 254 868 Z " fill="#ffffff"/>
<g id="Layer-1" data-name="P">
</g>
<text xml:space="preserve" transform="matrix(.71940049 0 0 .71940049 0 0)" font-size="11" font-family="ArialMT"><tspan y="865" x="254.0625 260.7835 266.8995 269.7595 276.4805 282.5965 285.45649 293.39848 299.51448 302.37446 310.31645 316.43244 319.29243 327.2344 333.3504 336.2104 344.15238 350.26838 353.3264 359.7504 362.8084">F1|F2|D1|D2|U1|U2 = 1</tspan></text>
<path transform="matrix(.71940049,0,0,.71940049,.35970024,.35970024)" stroke-width="1" stroke-linecap="butt" stroke-miterlimit="10" stroke-linejoin="miter" fill="none" stroke="#000000" d="M 145 730 L 145 356.37 "/>
<path transform="matrix(.71940049,0,0,.71940049,.35970024,.35970024)" d="M 145 351.12 L 148.5 358.12 L 145 356.37 L 141.5 358.12 L 145 351.12 Z "/>
<path transform="matrix(.71940049,0,0,.71940049,.35970024,.35970024)" stroke-width="1" stroke-linecap="butt" stroke-miterlimit="10" stroke-linejoin="miter" fill="none" stroke="#000000" d="M 145 351.12 L 148.5 358.12 L 145 356.37 L 141.5 358.12 L 145 351.12 Z "/>
<path transform="matrix(.71940049,0,0,.71940049,0,0)" d="M 102 535 L 191 535 L 191 548 L 102 548 Z " fill="#ffffff"/>
<g id="Layer-1" data-name="P">
</g>
<text xml:space="preserve" transform="matrix(.71940049 0 0 .71940049 0 0)" font-size="11" font-family="ArialMT"><tspan y="545" x="102.4375 104.8795 107.9375 110.9955 114.0535 117.7165 124.4375 130.5535 133.4135 141.3555 147.4715 151.13449 158.4715 165.8085 171.9245 174.9825 181.4065 184.4645">if: (F2|D2)&#x0026;S2 = 1</tspan></text>
<path transform="matrix(.71940049,0,0,.71940049,.35970024,.35970024)" stroke-width="1" stroke-linecap="butt" stroke-miterlimit="10" stroke-linejoin="miter" fill="none" stroke="#000000" d="M 240 755 L 373.63 755 "/>
<path transform="matrix(.71940049,0,0,.71940049,.35970024,.35970024)" d="M 378.88 755 L 371.88 758.5 L 373.63 755 L 371.88 751.5 L 378.88 755 Z "/>
<path transform="matrix(.71940049,0,0,.71940049,.35970024,.35970024)" stroke-width="1" stroke-linecap="butt" stroke-miterlimit="10" stroke-linejoin="miter" fill="none" stroke="#000000" d="M 378.88 755 L 371.88 758.5 L 373.63 755 L 371.88 751.5 L 378.88 755 Z "/>
<path transform="matrix(.71940049,0,0,.71940049,0,0)" d="M 253 750 L 370 750 L 370 763 L 253 763 Z " fill="#ffffff"/>
<g id="Layer-1" data-name="P">
</g>
<text xml:space="preserve" transform="matrix(.71940049 0 0 .71940049 0 0)" font-size="11" font-family="ArialMT"><tspan y="760" x="252.75 258.866 261.30799 266.80799 272.92399 275.982 278.42399 281.482 287.598 290.656 293.71403 297.377 304.09803 310.21403 313.074 321.016 327.132 330.79499 338.132 345.469 351.585 354.643 361.06703 364.12504">else if1: (F1|D1)&#x0026;S2 = 1</tspan></text>
<path transform="matrix(.71940049,0,0,.71940049,.35970024,.35970024)" stroke-width="1" stroke-linecap="butt" stroke-miterlimit="10" stroke-linejoin="miter" fill="none" stroke="#000000" d="M 240 730 L 520 600 L 775.41 354.41 "/>
<path transform="matrix(.71940049,0,0,.71940049,.35970024,.35970024)" d="M 779.19 350.77 L 776.57 358.15 L 775.41 354.41 L 771.72 353.1 L 779.19 350.77 Z "/>
<path transform="matrix(.71940049,0,0,.71940049,.35970024,.35970024)" stroke-width="1" stroke-linecap="butt" stroke-miterlimit="10" stroke-linejoin="miter" fill="none" stroke="#000000" d="M 779.19 350.77 L 776.57 358.15 L 775.41 354.41 L 771.72 353.1 L 779.19 350.77 Z "/>
<path transform="matrix(.71940049,0,0,.71940049,0,0)" d="M 492 576 L 587 576 L 587 589 L 492 589 Z " fill="#ffffff"/>
<g id="Layer-1" data-name="P">
</g>
<text xml:space="preserve" transform="matrix(.71940049 0 0 .71940049 0 0)" font-size="11" font-family="ArialMT"><tspan y="586" x="492.26564 498.38163 500.8236 506.3236 512.43966 515.4976 517.93966 520.9976 527.11367 530.17166 533.2296 541.17166 547.28768 554.62466 561.9616 568.07766 571.1356 577.55966 580.6176">else if2: U2&#x0026;S2 = 1</tspan></text>
<path transform="matrix(.71940049,0,0,.71940049,.35970024,.35970024)" stroke-width="1" stroke-linecap="butt" stroke-miterlimit="10" stroke-linejoin="miter" fill="none" stroke="#000000" d="M 240 350 L 377.8 724.02 "/>
<path transform="matrix(.71940049,0,0,.71940049,.35970024,.35970024)" d="M 379.61 728.95 L 373.91 723.59 L 377.8 724.02 L 380.48 721.17 L 379.61 728.95 Z "/>
<path transform="matrix(.71940049,0,0,.71940049,.35970024,.35970024)" stroke-width="1" stroke-linecap="butt" stroke-miterlimit="10" stroke-linejoin="miter" fill="none" stroke="#000000" d="M 379.61 728.95 L 373.91 723.59 L 377.8 724.02 L 380.48 721.17 L 379.61 728.95 Z "/>
<path transform="matrix(.71940049,0,0,.71940049,0,0)" d="M 278 534 L 343 534 L 343 547 L 278 547 Z " fill="#ffffff"/>
<g id="Layer-1" data-name="P">
</g>
<text xml:space="preserve" transform="matrix(.71940049 0 0 .71940049 0 0)" font-size="11" font-family="ArialMT"><tspan y="544" x="277.82814 284.54914 290.66514 293.52513 301.4671 307.5831 310.44309 318.38508 324.50108 327.55909 333.9831 337.0411">F1|U1|D1 = 1</tspan></text>
<path transform="matrix(.71940049,0,0,.71940049,.35970024,.35970024)" stroke-width="1" stroke-linecap="butt" stroke-miterlimit="10" stroke-linejoin="miter" fill="none" stroke="#000000" d="M 570 730 L 670 290 L 573.7 155.18 "/>
<path transform="matrix(.71940049,0,0,.71940049,.35970024,.35970024)" d="M 570.65 150.91 L 577.57 154.57 L 573.7 155.18 L 571.87 158.64 L 570.65 150.91 Z "/>
<path transform="matrix(.71940049,0,0,.71940049,.35970024,.35970024)" stroke-width="1" stroke-linecap="butt" stroke-miterlimit="10" stroke-linejoin="miter" fill="none" stroke="#000000" d="M 570.65 150.91 L 577.57 154.57 L 573.7 155.18 L 571.87 158.64 L 570.65 150.91 Z "/>
<path transform="matrix(.71940049,0,0,.71940049,0,0)" d="M 624 420 L 657 420 L 657 433 L 624 433 Z " fill="#ffffff"/>
<g id="Layer-1" data-name="P">
</g>
<text xml:space="preserve" transform="matrix(.71940049 0 0 .71940049 0 0)" font-size="11" font-family="ArialMT"><tspan y="430" x="624.4531 631.7901 637.9061 640.9641 647.3881 650.4461">S1 = 1</tspan></text>
<path transform="matrix(.71940049,0,0,.71940049,.35970024,.35970024)" stroke-width="1" stroke-linecap="butt" stroke-miterlimit="10" stroke-linejoin="miter" fill="none" stroke="#000000" d="M 380 125 L 246.37 125 "/>
<path transform="matrix(.71940049,0,0,.71940049,.35970024,.35970024)" d="M 241.12 125 L 248.12 121.5 L 246.37 125 L 248.12 128.5 L 241.12 125 Z "/>
<path transform="matrix(.71940049,0,0,.71940049,.35970024,.35970024)" stroke-width="1" stroke-linecap="butt" stroke-miterlimit="10" stroke-linejoin="miter" fill="none" stroke="#000000" d="M 241.12 125 L 248.12 121.5 L 246.37 125 L 248.12 128.5 L 241.12 125 Z "/>
<path transform="matrix(.71940049,0,0,.71940049,0,0)" d="M 254 120 L 369 120 L 369 133 L 254 133 Z " fill="#ffffff"/>
<g id="Layer-1" data-name="P">
</g>
<text xml:space="preserve" transform="matrix(.71940049 0 0 .71940049 0 0)" font-size="11" font-family="ArialMT"><tspan y="130" x="254.0625 260.7835 266.8995 269.7595 276.4805 282.5965 285.45649 293.39848 299.51448 302.37446 310.31645 316.43244 319.29243 327.2344 333.3504 336.2104 344.15238 350.26838 353.3264 359.7504 362.8084">F2|F3|D2|D3|U2|U3 = 0</tspan></text>
<path transform="matrix(.71940049,0,0,.71940049,.35970024,.35970024)" stroke-width="1" stroke-linecap="butt" stroke-miterlimit="10" stroke-linejoin="miter" fill="none" stroke="#000000" d="M 145 100 L 310 70 L 468.73 98.86 "/>
<path transform="matrix(.71940049,0,0,.71940049,.35970024,.35970024)" d="M 473.9 99.8 L 466.39 101.99 L 468.73 98.86 L 467.64 95.1 L 473.9 99.8 Z "/>
<path transform="matrix(.71940049,0,0,.71940049,.35970024,.35970024)" stroke-width="1" stroke-linecap="butt" stroke-miterlimit="10" stroke-linejoin="miter" fill="none" stroke="#000000" d="M 473.9 99.8 L 466.39 101.99 L 468.73 98.86 L 467.64 95.1 L 473.9 99.8 Z "/>
<path transform="matrix(.71940049,0,0,.71940049,0,0)" d="M 279 65 L 344 65 L 344 78 L 279 78 Z " fill="#ffffff"/>
<g id="Layer-1" data-name="P">
</g>
<text xml:space="preserve" transform="matrix(.71940049 0 0 .71940049 0 0)" font-size="11" font-family="ArialMT"><tspan y="75" x="278.82814 285.54914 291.66514 294.52513 302.4671 308.5831 311.44309 319.38508 325.50108 328.55909 334.9831 338.0411">F1|U1|D1 = 1</tspan></text>
<path transform="matrix(.71940049,0,0,.71940049,.35970024,.35970024)" stroke-width="1" stroke-linecap="butt" stroke-miterlimit="10" stroke-linejoin="miter" fill="none" stroke="#000000" d="M 97.5 100 L 350 40 L 773.69 99.12 "/>
<path transform="matrix(.71940049,0,0,.71940049,.35970024,.35970024)" d="M 778.89 99.85 L 771.48 102.34 L 773.69 99.12 L 772.44 95.41 L 778.89 99.85 Z "/>
<path transform="matrix(.71940049,0,0,.71940049,.35970024,.35970024)" stroke-width="1" stroke-linecap="butt" stroke-miterlimit="10" stroke-linejoin="miter" fill="none" stroke="#000000" d="M 778.89 99.85 L 771.48 102.34 L 773.69 99.12 L 772.44 95.41 L 778.89 99.85 Z "/>
<path transform="matrix(.71940049,0,0,.71940049,0,0)" d="M 380 47 L 495 47 L 495 60 L 380 60 Z " fill="#ffffff"/>
<g id="Layer-1" data-name="P">
</g>
<text xml:space="preserve" transform="matrix(.71940049 0 0 .71940049 0 0)" font-size="11" font-family="ArialMT"><tspan y="57" x="380.0625 386.7835 392.8995 395.7595 402.4805 408.5965 411.45649 419.39848 425.51448 428.37446 436.31645 442.43244 445.29243 453.2344 459.3504 462.2104 470.15238 476.26838 479.3264 485.7504 488.8084">F2|F3|D2|D3|U2|U3 = 1</tspan></text>
<path transform="matrix(.71940049,0,0,.71940049,.35970024,.35970024)" stroke-width="1" stroke-linecap="butt" stroke-miterlimit="10" stroke-linejoin="miter" fill="none" stroke="#000000" d="M 380 965 L 246.37 965 "/>
<path transform="matrix(.71940049,0,0,.71940049,.35970024,.35970024)" d="M 241.12 965 L 248.12 961.5 L 246.37 965 L 248.12 968.5 L 241.12 965 Z "/>
<path transform="matrix(.71940049,0,0,.71940049,.35970024,.35970024)" stroke-width="1" stroke-linecap="butt" stroke-miterlimit="10" stroke-linejoin="miter" fill="none" stroke="#000000" d="M 241.12 965 L 248.12 961.5 L 246.37 965 L 248.12 968.5 L 241.12 965 Z "/>
<path transform="matrix(.71940049,0,0,.71940049,0,0)" d="M 254 960 L 369 960 L 369 973 L 254 973 Z " fill="#ffffff"/>
<g id="Layer-1" data-name="P">
</g>
<text xml:space="preserve" transform="matrix(.71940049 0 0 .71940049 0 0)" font-size="11" font-family="ArialMT"><tspan y="970" x="254.0625 260.7835 266.8995 269.7595 276.4805 282.5965 285.45649 293.39848 299.51448 302.37446 310.31645 316.43244 319.29243 327.2344 333.3504 336.2104 344.15238 350.26838 353.3264 359.7504 362.8084">F1|F2|D1|D2|U1|U2 = 0</tspan></text>
<path transform="matrix(.71940049,0,0,.71940049,.35970024,.35970024)" stroke-width="1" stroke-linecap="butt" stroke-miterlimit="10" stroke-linejoin="miter" fill="none" stroke="#000000" d="M 145 990 L 310 1040 L 468.91 991.85 "/>
<path transform="matrix(.71940049,0,0,.71940049,.35970024,.35970024)" d="M 473.93 990.32 L 468.25 995.7 L 468.91 991.85 L 466.22 989 L 473.93 990.32 Z "/>
<path transform="matrix(.71940049,0,0,.71940049,.35970024,.35970024)" stroke-width="1" stroke-linecap="butt" stroke-miterlimit="10" stroke-linejoin="miter" fill="none" stroke="#000000" d="M 473.93 990.32 L 468.25 995.7 L 468.91 991.85 L 466.22 989 L 473.93 990.32 Z "/>
<path transform="matrix(.71940049,0,0,.71940049,0,0)" d="M 278 1035 L 343 1035 L 343 1048 L 278 1048 Z " fill="#ffffff"/>
<g id="Layer-1" data-name="P">
</g>
<text xml:space="preserve" transform="matrix(.71940049 0 0 .71940049 0 0)" font-size="11" font-family="ArialMT"><tspan y="1045" x="277.82814 284.54914 290.66514 293.52513 301.4671 307.5831 310.44309 318.38508 324.50108 327.55909 333.9831 337.0411">F3|D3|U3 = 1</tspan></text>
<path transform="matrix(.71940049,0,0,.71940049,.35970024,.35970024)" stroke-width="1" stroke-linecap="butt" stroke-miterlimit="10" stroke-linejoin="miter" fill="none" stroke="#000000" d="M 145 940 L 145 786.37 "/>
<path transform="matrix(.71940049,0,0,.71940049,.35970024,.35970024)" d="M 145 781.12 L 148.5 788.12 L 145 786.37 L 141.5 788.12 L 145 781.12 Z "/>
<path transform="matrix(.71940049,0,0,.71940049,.35970024,.35970024)" stroke-width="1" stroke-linecap="butt" stroke-miterlimit="10" stroke-linejoin="miter" fill="none" stroke="#000000" d="M 145 781.12 L 148.5 788.12 L 145 786.37 L 141.5 788.12 L 145 781.12 Z "/>
<path transform="matrix(.71940049,0,0,.71940049,0,0)" d="M 89 855 L 204 855 L 204 868 L 89 868 Z " fill="#ffffff"/>
<g id="Layer-1" data-name="P">
</g>
<text xml:space="preserve" transform="matrix(.71940049 0 0 .71940049 0 0)" font-size="11" font-family="ArialMT"><tspan y="865" x="89.0625 95.7835 101.8995 104.7595 111.4805 117.5965 120.4565 128.3985 134.5145 137.3745 145.3165 151.4325 154.2925 162.2345 168.3505 171.2105 179.1525 185.2685 188.32649 194.75049 197.80849">F1|F2|D1|D2|U1|U2 = 1</tspan></text>
<path transform="matrix(.71940049,0,0,.71940049,.35970024,.35970024)" d="M 387.5 410 L 562.5 410 C 562.9925 410 563.4802 410.04804 563.9632 410.1441 C 564.44619 410.24018 564.9151 410.38246 565.37008 410.5709 C 565.825 410.75935 566.25729 410.99037 566.66677 411.26396 C 567.07626 411.53755 567.4551 411.84846 567.8033 412.1967 C 568.1515 412.5449 568.46237 412.92375 568.73599 413.33323 C 569.0095 413.74269 569.24057 414.17488 569.429 414.62986 C 569.61746 415.08485 569.7597 415.5538 569.85586 416.0368 C 569.95199 416.5198 570 417.00755 570 417.5 L 570 452.5 C 570 452.99247 569.95199 453.48017 569.85586 453.96315 C 569.7597 454.44615 569.61746 454.9151 569.429 455.37007 C 569.24057 455.82505 569.0095 456.25727 568.73599 456.66673 C 568.46237 457.07618 568.1515 457.45503 567.8033 457.80326 C 567.4551 458.1515 567.07626 458.46238 566.66677 458.73597 C 566.25729 459.00956 565.825 459.24058 565.37008 459.42903 C 564.9151 459.61747 564.44619 459.75978 563.9632 459.85588 C 563.4802 459.95195 562.9925 459.99998 562.5 460 L 387.5 460 C 387.00755 459.99998 386.5198 459.95195 386.0368 459.85588 C 385.5538 459.75978 385.0848 459.61747 384.62983 459.42903 C 384.17488 459.24058 383.74266 459.00956 383.33317 458.73597 C 382.9237 458.46238 382.54487 458.1515 382.19667 457.80326 C 381.84843 457.45503 381.53755 457.07618 381.26396 456.66673 C 380.99037 456.25727 380.7593 455.82505 380.57087 455.37007 C 380.38243 454.9151 380.24018 454.44615 380.14408 453.96315 C 380.048 453.48017 379.99998 452.99247 380 452.5 L 380 417.5 C 379.99998 417.00755 380.048 416.5198 380.14405 416.0368 C 380.24015 415.5538 380.38243 415.08485 380.57087 414.62986 C 380.7593 414.17488 380.99034 413.74266 381.26393 413.3332 C 381.5375 412.92375 381.84843 412.5449 382.19667 412.1967 C 382.54487 411.84846 382.9237 411.53755 383.3332 411.26396 C 383.74266 410.99037 384.17488 410.75935 384.62983 410.5709 C 385.0848 410.38246 385.5538 410.24018 386.0368 410.1441 C 386.5198 410.04804 387.00755 410 387.5 410 Z " fill="#ffffff"/>
<path transform="matrix(.71940049,0,0,.71940049,.35970024,.35970024)" stroke-width="1" stroke-linecap="butt" stroke-miterlimit="4" stroke-linejoin="miter" fill="none" stroke="#000000" d="M 387.5 410 L 562.5 410 C 562.9925 410 563.4802 410.04804 563.9632 410.1441 C 564.44619 410.24018 564.9151 410.38246 565.37008 410.5709 C 565.825 410.75935 566.25729 410.99037 566.66677 411.26396 C 567.07626 411.53755 567.4551 411.84846 567.8033 412.1967 C 568.1515 412.5449 568.46237 412.92375 568.73599 413.33323 C 569.0095 413.74269 569.24057 414.17488 569.429 414.62986 C 569.61746 415.08485 569.7597 415.5538 569.85586 416.0368 C 569.95199 416.5198 570 417.00755 570 417.5 L 570 452.5 C 570 452.99247 569.95199 453.48017 569.85586 453.96315 C 569.7597 454.44615 569.61746 454.9151 569.429 455.37007 C 569.24057 455.82505 569.0095 456.25727 568.73599 456.66673 C 568.46237 457.07618 568.1515 457.45503 567.8033 457.80326 C 567.4551 458.1515 567.07626 458.46238 566.66677 458.73597 C 566.25729 459.00956 565.825 459.24058 565.37008 459.42903 C 564.9151 459.61747 564.44619 459.75978 563.9632 459.85588 C 563.4802 459.95195 562.9925 459.99998 562.5 460 L 387.5 460 C 387.00755 459.99998 386.5198 459.95195 386.0368 459.85588 C 385.5538 459.75978 385.0848 459.61747 384.62983 459.42903 C 384.17488 459.24058 383.74266 459.00956 383.33317 458.73597 C 382.9237 458.46238 382.54487 458.1515 382.19667 457.80326 C 381.84843 457.45503 381.53755 457.07618 381.26396 456.66673 C 380.99037 456.25727 380.7593 455.82505 380.57087 455.37007 C 380.38243 454.9151 380.24018 454.44615 380.14408 453.96315 C 380.048 453.48017 379.99998 452.99247 380 452.5 L 380 417.5 C 379.99998 417.00755 380.048 416.5198 380.14405 416.0368 C 380.24015 415.5538 380.38243 415.08485 380.57087 414.62986 C 380.7593 414.17488 380.99034 413.74266 381.26393 413.3332 C 381.5375 412.92375 381.84843 412.5449 382.19667 412.1967 C 382.54487 411.84846 382.9237 411.53755 383.3332 411.26396 C 383.74266 410.99037 384.17488 410.75935 384.62983 410.5709 C 385.0848 410.38246 385.5538 410.24018 386.0368 410.1441 C 386.5198 410.04804 387.00755 410 387.5 410 Z "/>
<g id="Layer-1" data-name="P">
</g>
<text xml:space="preserve" transform="matrix(.71940049 0 0 .71940049 0 0)" font-size="12" font-family="Arial" font-weight="bold"><tspan y="432" x="394 402.004 406 412.672 416.668 423.34 427.336 433.35157 440.02357 443.35957 447.35557 450.69157 458.02357 461.35957 468.69157 476.02357 480.69157 487.36357 490.69956 494.69557 503.35957 511.36357 520.0275 527.3595 536.0235 544.6875 552.0195">State:11 - Floor2 (NEUTRAL)</tspan></text>
<g id="Layer-1" data-name="P">
</g>
<text xml:space="preserve" transform="matrix(.71940049 0 0 .71940049 0 0)" font-size="12" font-family="ArialMT"><tspan y="447" x="385.46876 393.47276 402.13676 405.47276 412.48075 415.81675 421.81675 425.15275 431.82475 438.49674 441.83274 445.82875 449.16474 457.82875 467.16474 476.50074 485.16474 488.50074 495.50874 498.84474 505.51673 508.85273 512.8487 516.1847 524.8487 528.1847 536.1887 544.19277 547.52877 554.53677 557.87277">AC = stop - DOOR = 1 - DISP = 2</tspan></text>
<path transform="matrix(.71940049,0,0,.71940049,.35970024,.35970024)" stroke-width="1" stroke-linecap="butt" stroke-miterlimit="10" stroke-linejoin="miter" fill="none" stroke="#000000" d="M 780 325 L 575.9 407.61 "/>
<path transform="matrix(.71940049,0,0,.71940049,.35970024,.35970024)" d="M 571.04 409.58 L 576.21 403.71 L 575.9 407.61 L 578.84 410.2 L 571.04 409.58 Z "/>
<path transform="matrix(.71940049,0,0,.71940049,.35970024,.35970024)" stroke-width="1" stroke-linecap="butt" stroke-miterlimit="10" stroke-linejoin="miter" fill="none" stroke="#000000" d="M 571.04 409.58 L 576.21 403.71 L 575.9 407.61 L 578.84 410.2 L 571.04 409.58 Z "/>
<path transform="matrix(.71940049,0,0,.71940049,0,0)" d="M 644 362 L 709 362 L 709 375 L 644 375 Z " fill="#ffffff"/>
<g id="Layer-1" data-name="P">
</g>
<text xml:space="preserve" transform="matrix(.71940049 0 0 .71940049 0 0)" font-size="11" font-family="ArialMT"><tspan y="372" x="643.8281 650.54916 656.66519 659.52517 667.46719 673.5832 676.4432 684.3852 690.5012 693.5592 699.9832 703.0412">F3|U3|D3 = 0</tspan></text>
<path transform="matrix(.71940049,0,0,.71940049,.35970024,.35970024)" stroke-width="1" stroke-linecap="butt" stroke-miterlimit="10" stroke-linejoin="miter" fill="none" stroke="#000000" d="M 240 325 L 374.56 406.7 "/>
<path transform="matrix(.71940049,0,0,.71940049,.35970024,.35970024)" d="M 379.04 409.42 L 371.24 408.78 L 374.56 406.7 L 374.88 402.8 L 379.04 409.42 Z "/>
<path transform="matrix(.71940049,0,0,.71940049,.35970024,.35970024)" stroke-width="1" stroke-linecap="butt" stroke-miterlimit="10" stroke-linejoin="miter" fill="none" stroke="#000000" d="M 379.04 409.42 L 371.24 408.78 L 374.56 406.7 L 374.88 402.8 L 379.04 409.42 Z "/>
<path transform="matrix(.71940049,0,0,.71940049,0,0)" d="M 279 362 L 344 362 L 344 375 L 279 375 Z " fill="#ffffff"/>
<g id="Layer-1" data-name="P">
</g>
<text xml:space="preserve" transform="matrix(.71940049 0 0 .71940049 0 0)" font-size="11" font-family="ArialMT"><tspan y="372" x="278.82814 285.54914 291.66514 294.52513 302.4671 308.5831 311.44309 319.38508 325.50108 328.55909 334.9831 338.0411">F1|U1|D1 = 0</tspan></text>
<path transform="matrix(.71940049,0,0,.71940049,.35970024,.35970024)" stroke-width="1" stroke-linecap="butt" stroke-miterlimit="10" stroke-linejoin="miter" fill="none" stroke="#000000" d="M 380 435 L 198.3 352.63 "/>
<path transform="matrix(.71940049,0,0,.71940049,.35970024,.35970024)" d="M 193.52 350.46 L 201.34 350.16 L 198.3 352.63 L 198.45 356.54 L 193.52 350.46 Z "/>
<path transform="matrix(.71940049,0,0,.71940049,.35970024,.35970024)" stroke-width="1" stroke-linecap="butt" stroke-miterlimit="10" stroke-linejoin="miter" fill="none" stroke="#000000" d="M 193.52 350.46 L 201.34 350.16 L 198.3 352.63 L 198.45 356.54 L 193.52 350.46 Z "/>
<path transform="matrix(.71940049,0,0,.71940049,0,0)" d="M 255 387 L 320 387 L 320 400 L 255 400 Z " fill="#ffffff"/>
<g id="Layer-1" data-name="P">
</g>
<text xml:space="preserve" transform="matrix(.71940049 0 0 .71940049 0 0)" font-size="11" font-family="ArialMT"><tspan y="397" x="254.82813 261.54914 267.66514 270.52513 278.4671 284.5831 287.44309 295.38508 301.50108 304.55909 310.9831 314.0411">F1|U1|D1 = 1</tspan></text>
<path transform="matrix(.71940049,0,0,.71940049,.35970024,.35970024)" stroke-width="1" stroke-linecap="butt" stroke-miterlimit="10" stroke-linejoin="miter" fill="none" stroke="#000000" d="M 570 435 L 821.45 352 "/>
<path transform="matrix(.71940049,0,0,.71940049,.35970024,.35970024)" d="M 826.44 350.35 L 820.89 355.87 L 821.45 352 L 818.69 349.22 L 826.44 350.35 Z "/>
<path transform="matrix(.71940049,0,0,.71940049,.35970024,.35970024)" stroke-width="1" stroke-linecap="butt" stroke-miterlimit="10" stroke-linejoin="miter" fill="none" stroke="#000000" d="M 826.44 350.35 L 820.89 355.87 L 821.45 352 L 818.69 349.22 L 826.44 350.35 Z "/>
<path transform="matrix(.71940049,0,0,.71940049,0,0)" d="M 668 387 L 733 387 L 733 400 L 668 400 Z " fill="#ffffff"/>
<g id="Layer-1" data-name="P">
</g>
<text xml:space="preserve" transform="matrix(.71940049 0 0 .71940049 0 0)" font-size="11" font-family="ArialMT"><tspan y="397" x="667.8281 674.54916 680.66519 683.52517 691.46719 697.5832 700.4432 708.3852 714.5012 717.5592 723.9832 727.0412">F3|U3|D3 = 1</tspan></text>
<path transform="matrix(.71940049,0,0,.71940049,.35970024,.35970024)" stroke-width="1" stroke-linecap="butt" stroke-miterlimit="10" stroke-linejoin="miter" fill="none" stroke="#000000" d="M 522.5 410 L 522.5 356.37 "/>
<path transform="matrix(.71940049,0,0,.71940049,.35970024,.35970024)" d="M 522.5 351.12 L 526 358.12 L 522.5 356.37 L 519 358.12 L 522.5 351.12 Z "/>
<path transform="matrix(.71940049,0,0,.71940049,.35970024,.35970024)" stroke-width="1" stroke-linecap="butt" stroke-miterlimit="10" stroke-linejoin="miter" fill="none" stroke="#000000" d="M 522.5 351.12 L 526 358.12 L 522.5 356.37 L 519 358.12 L 522.5 351.12 Z "/>
<path transform="matrix(.71940049,0,0,.71940049,0,0)" d="M 466 375 L 581 375 L 581 388 L 466 388 Z " fill="#ffffff"/>
<g id="Layer-1" data-name="P">
</g>
<text xml:space="preserve" transform="matrix(.71940049 0 0 .71940049 0 0)" font-size="11" font-family="ArialMT"><tspan y="385" x="466.0625 472.7835 478.8995 481.7595 489.70149 495.81748 498.67747 506.61946 512.7355 515.59548 522.31649 528.4325 531.2925 539.2345 545.3505 548.2105 556.1525 562.26858 565.32656 571.75057 574.80856">F1|U1|D1|F3|U3|D3 = 0</tspan></text>
<path transform="matrix(.71940049,0,0,.71940049,.35970024,.35970024)" stroke-width="1" stroke-linecap="butt" stroke-miterlimit="10" stroke-linejoin="miter" fill="none" stroke="#000000" d="M 427.5 350 L 427.5 403.63 "/>
<path transform="matrix(.71940049,0,0,.71940049,.35970024,.35970024)" d="M 427.5 408.88 L 424 401.88 L 427.5 403.63 L 431 401.88 L 427.5 408.88 Z "/>
<path transform="matrix(.71940049,0,0,.71940049,.35970024,.35970024)" stroke-width="1" stroke-linecap="butt" stroke-miterlimit="10" stroke-linejoin="miter" fill="none" stroke="#000000" d="M 427.5 408.88 L 424 401.88 L 427.5 403.63 L 431 401.88 L 427.5 408.88 Z "/>
<path transform="matrix(.71940049,0,0,.71940049,0,0)" d="M 396 375 L 461 375 L 461 388 L 396 388 Z " fill="#ffffff"/>
<g id="Layer-1" data-name="P">
</g>
<text xml:space="preserve" transform="matrix(.71940049 0 0 .71940049 0 0)" font-size="11" font-family="ArialMT"><tspan y="385" x="395.82814 402.54914 408.66514 411.52513 419.4671 425.5831 428.44309 436.38508 442.50108 445.55909 451.9831 455.0411">F2|D2|U2 = 1</tspan></text>
<path transform="matrix(.71940049,0,0,.71940049,.35970024,.35970024)" stroke-width="1" stroke-linecap="butt" stroke-miterlimit="10" stroke-linejoin="miter" fill="none" stroke="#000000" d="M 380 350 L 230 490 L 376.62 724.6 "/>
<path transform="matrix(.71940049,0,0,.71940049,.35970024,.35970024)" d="M 379.41 729.05 L 372.73 724.97 L 376.62 724.6 L 378.67 721.26 L 379.41 729.05 Z "/>
<path transform="matrix(.71940049,0,0,.71940049,.35970024,.35970024)" stroke-width="1" stroke-linecap="butt" stroke-miterlimit="10" stroke-linejoin="miter" fill="none" stroke="#000000" d="M 379.41 729.05 L 372.73 724.97 L 376.62 724.6 L 378.67 721.26 L 379.41 729.05 Z "/>
<path transform="matrix(.71940049,0,0,.71940049,0,0)" d="M 219 517 L 284 517 L 284 530 L 219 530 Z " fill="#ffffff"/>
<g id="Layer-1" data-name="P">
</g>
<text xml:space="preserve" transform="matrix(.71940049 0 0 .71940049 0 0)" font-size="11" font-family="ArialMT"><tspan y="527" x="218.82813 225.54912 231.66512 234.52512 242.46712 248.58312 251.44312 259.3851 265.5011 268.5591 274.98313 278.04115">F1|U1|D1 = 1</tspan></text>
<path transform="matrix(.71940049,0,0,.71940049,.35970024,.35970024)" stroke-width="1" stroke-linecap="butt" stroke-miterlimit="10" stroke-linejoin="miter" fill="none" stroke="#000000" d="M 570 350 L 776.92 724.43 "/>
<path transform="matrix(.71940049,0,0,.71940049,.35970024,.35970024)" d="M 779.46 729.02 L 773.01 724.59 L 776.92 724.43 L 779.14 721.2 L 779.46 729.02 Z "/>
<path transform="matrix(.71940049,0,0,.71940049,.35970024,.35970024)" stroke-width="1" stroke-linecap="butt" stroke-miterlimit="10" stroke-linejoin="miter" fill="none" stroke="#000000" d="M 779.46 729.02 L 773.01 724.59 L 776.92 724.43 L 779.14 721.2 L 779.46 729.02 Z "/>
<path transform="matrix(.71940049,0,0,.71940049,0,0)" d="M 643 534 L 708 534 L 708 547 L 643 547 Z " fill="#ffffff"/>
<g id="Layer-1" data-name="P">
</g>
<text xml:space="preserve" transform="matrix(.71940049 0 0 .71940049 0 0)" font-size="11" font-family="ArialMT"><tspan y="544" x="642.8281 649.54916 655.66519 658.52517 666.46719 672.5832 675.4432 683.3852 689.5012 692.5592 698.9832 702.0412">F3|U3|D3 = 1</tspan></text>
</g>
</g>
</svg>
